<?xml version="1.0" encoding="utf-8" standalone="no"?>
<!DOCTYPE svg PUBLIC "-//W3C//DTD SVG 1.1//EN"
  "http://www.w3.org/Graphics/SVG/1.1/DTD/svg11.dtd">
<!-- Created with matplotlib (https://matplotlib.org/) -->
<svg height="310.86825pt" version="1.1" viewBox="0 0 408.10125 310.86825" width="408.10125pt" xmlns="http://www.w3.org/2000/svg" xmlns:xlink="http://www.w3.org/1999/xlink">
 <metadata>
  <rdf:RDF xmlns:cc="http://creativecommons.org/ns#" xmlns:dc="http://purl.org/dc/elements/1.1/" xmlns:rdf="http://www.w3.org/1999/02/22-rdf-syntax-ns#">
   <cc:Work>
    <dc:type rdf:resource="http://purl.org/dc/dcmitype/StillImage"/>
    <dc:date>2020-10-26T23:51:01.794406</dc:date>
    <dc:format>image/svg+xml</dc:format>
    <dc:creator>
     <cc:Agent>
      <dc:title>Matplotlib v3.3.2, https://matplotlib.org/</dc:title>
     </cc:Agent>
    </dc:creator>
   </cc:Work>
  </rdf:RDF>
 </metadata>
 <defs>
  <style type="text/css">*{stroke-linecap:butt;stroke-linejoin:round;}</style>
 </defs>
 <g id="figure_1">
  <g id="patch_1">
   <path d="M 0 310.86825 
L 408.10125 310.86825 
L 408.10125 0 
L 0 0 
z
" style="fill:#ffffff;"/>
  </g>
  <g id="axes_1">
   <g id="patch_2">
    <path d="M 43.78125 273.312 
L 400.90125 273.312 
L 400.90125 7.2 
L 43.78125 7.2 
z
" style="fill:#ffffff;"/>
   </g>
   <g id="PolyCollection_1">
    <path clip-path="url(#p56a15c8417)" d="M 69.68249 260.618541 
L 68.722137 260.618541 
L 68.453254 248.005003 
L 68.311106 235.391465 
L 68.11395 222.777927 
L 67.953832 210.164389 
L 67.942842 197.550851 
L 67.733151 184.937313 
L 67.291 172.323776 
L 67.105074 159.710238 
L 67.261403 147.0967 
L 67.227203 134.483162 
L 66.602023 121.869624 
L 65.43983 109.256086 
L 64.021554 96.642548 
L 62.63671 84.02901 
L 61.290042 71.415472 
L 60.471317 58.801934 
L 60.013977 46.188396 
L 60.216962 33.574858 
L 63.169579 20.96132 
L 75.235048 20.96132 
L 75.235048 20.96132 
L 78.187665 33.574858 
L 78.39065 46.188396 
L 77.93331 58.801934 
L 77.114585 71.415472 
L 75.767917 84.02901 
L 74.383073 96.642548 
L 72.964797 109.256086 
L 71.802604 121.869624 
L 71.177424 134.483162 
L 71.143224 147.0967 
L 71.299553 159.710238 
L 71.113627 172.323776 
L 70.671476 184.937313 
L 70.461785 197.550851 
L 70.450795 210.164389 
L 70.290677 222.777927 
L 70.093521 235.391465 
L 69.951373 248.005003 
L 69.68249 260.618541 
z
" style="fill:#2cbdfe;"/>
   </g>
   <g id="PolyCollection_2">
    <path clip-path="url(#p56a15c8417)" d="M 130.940614 260.618541 
L 129.975162 260.618541 
L 129.705028 248.005003 
L 129.561478 235.391465 
L 129.363503 222.777927 
L 129.202938 210.164389 
L 129.190878 197.550851 
L 128.980909 184.937313 
L 128.543456 172.323776 
L 128.365959 159.710238 
L 128.520126 147.0967 
L 128.476217 134.483162 
L 127.850482 121.869624 
L 126.699045 109.256086 
L 125.284483 96.642548 
L 123.891913 84.02901 
L 122.547672 71.415472 
L 121.725455 58.801934 
L 121.269552 46.188396 
L 121.498531 33.574858 
L 124.450896 20.96132 
L 136.46488 20.96132 
L 136.46488 20.96132 
L 139.417245 33.574858 
L 139.646224 46.188396 
L 139.190321 58.801934 
L 138.368105 71.415472 
L 137.023863 84.02901 
L 135.631293 96.642548 
L 134.216731 109.256086 
L 133.065294 121.869624 
L 132.439559 134.483162 
L 132.39565 147.0967 
L 132.549817 159.710238 
L 132.37232 172.323776 
L 131.934867 184.937313 
L 131.724899 197.550851 
L 131.712838 210.164389 
L 131.552273 222.777927 
L 131.354299 235.391465 
L 131.210748 248.005003 
L 130.940614 260.618541 
z
" style="fill:#2cbdfe;"/>
   </g>
   <g id="PolyCollection_3">
    <path clip-path="url(#p56a15c8417)" d="M 192.196197 260.618253 
L 191.230728 260.618253 
L 190.960601 248.00473 
L 190.817052 235.391207 
L 190.619077 222.777684 
L 190.458513 210.164162 
L 190.446444 197.550639 
L 190.236474 184.937116 
L 189.799025 172.323593 
L 189.621537 159.710071 
L 189.775703 147.096548 
L 189.731782 134.483025 
L 189.106043 121.869502 
L 187.954612 109.255979 
L 186.540051 96.642457 
L 185.147478 84.028934 
L 183.803236 71.415411 
L 182.981024 58.801888 
L 182.525127 46.188365 
L 182.754109 33.574843 
L 185.70647 20.96132 
L 197.720456 20.96132 
L 197.720456 20.96132 
L 200.672817 33.574843 
L 200.901799 46.188365 
L 200.445901 58.801888 
L 199.62369 71.415411 
L 198.279447 84.028934 
L 196.886874 96.642457 
L 195.472313 109.255979 
L 194.320882 121.869502 
L 193.695143 134.483025 
L 193.651222 147.096548 
L 193.805388 159.710071 
L 193.6279 172.323593 
L 193.190452 184.937116 
L 192.980481 197.550639 
L 192.968412 210.164162 
L 192.807848 222.777684 
L 192.609874 235.391207 
L 192.466324 248.00473 
L 192.196197 260.618253 
z
" style="fill:#2cbdfe;"/>
   </g>
   <g id="PolyCollection_4">
    <path clip-path="url(#p56a15c8417)" d="M 253.451775 260.618137 
L 252.4863 260.618137 
L 252.216174 248.004621 
L 252.072626 235.391104 
L 251.874648 222.777587 
L 251.714086 210.164071 
L 251.702022 197.550554 
L 251.492047 184.937037 
L 251.054596 172.32352 
L 250.87711 159.710004 
L 251.03128 147.096487 
L 250.987359 134.48297 
L 250.361616 121.869454 
L 249.210179 109.255937 
L 247.795621 96.64242 
L 246.403051 84.028903 
L 245.058808 71.415387 
L 244.236597 58.80187 
L 243.780701 46.188353 
L 244.009684 33.574837 
L 246.962045 20.96132 
L 258.97603 20.96132 
L 258.97603 20.96132 
L 261.92839 33.574837 
L 262.157373 46.188353 
L 261.701477 58.80187 
L 260.879267 71.415387 
L 259.535024 84.028903 
L 258.142454 96.64242 
L 256.727895 109.255937 
L 255.576459 121.869454 
L 254.950715 134.48297 
L 254.906795 147.096487 
L 255.060965 159.710004 
L 254.883478 172.32352 
L 254.446027 184.937037 
L 254.236053 197.550554 
L 254.223989 210.164071 
L 254.063427 222.777587 
L 253.865448 235.391104 
L 253.721901 248.004621 
L 253.451775 260.618137 
z
" style="fill:#2cbdfe;"/>
   </g>
   <g id="PolyCollection_5">
    <path clip-path="url(#p56a15c8417)" d="M 314.707347 260.618253 
L 313.741877 260.618253 
L 313.47175 248.00473 
L 313.328201 235.391207 
L 313.130226 222.777684 
L 312.969662 210.164162 
L 312.957593 197.550639 
L 312.747623 184.937116 
L 312.310175 172.323593 
L 312.132686 159.710071 
L 312.286852 147.096548 
L 312.242932 134.483025 
L 311.617193 121.869502 
L 310.465762 109.255979 
L 309.051201 96.642457 
L 307.658628 84.028934 
L 306.314385 71.415411 
L 305.492174 58.801888 
L 305.036276 46.188365 
L 305.265258 33.574843 
L 308.217619 20.96132 
L 320.231605 20.96132 
L 320.231605 20.96132 
L 323.183966 33.574843 
L 323.412948 46.188365 
L 322.95705 58.801888 
L 322.134839 71.415411 
L 320.790596 84.028934 
L 319.398023 96.642457 
L 317.983462 109.255979 
L 316.832031 121.869502 
L 316.206292 134.483025 
L 316.162372 147.096548 
L 316.316538 159.710071 
L 316.139049 172.323593 
L 315.701601 184.937116 
L 315.491631 197.550639 
L 315.479561 210.164162 
L 315.318998 222.777684 
L 315.121023 235.391207 
L 314.977474 248.00473 
L 314.707347 260.618253 
z
" style="fill:#2cbdfe;"/>
   </g>
   <g id="PolyCollection_6">
    <path clip-path="url(#p56a15c8417)" d="M 375.960363 260.618541 
L 375.00001 260.618541 
L 374.731127 248.005003 
L 374.588979 235.391465 
L 374.391823 222.777927 
L 374.231705 210.164389 
L 374.220715 197.550851 
L 374.011024 184.937313 
L 373.568873 172.323776 
L 373.382947 159.710238 
L 373.539276 147.0967 
L 373.505076 134.483162 
L 372.879896 121.869624 
L 371.717703 109.256086 
L 370.299427 96.642548 
L 368.914583 84.02901 
L 367.567915 71.415472 
L 366.74919 58.801934 
L 366.29185 46.188396 
L 366.494835 33.574858 
L 369.447452 20.96132 
L 381.512921 20.96132 
L 381.512921 20.96132 
L 384.465538 33.574858 
L 384.668523 46.188396 
L 384.211183 58.801934 
L 383.392458 71.415472 
L 382.04579 84.02901 
L 380.660946 96.642548 
L 379.24267 109.256086 
L 378.080477 121.869624 
L 377.455297 134.483162 
L 377.421097 147.0967 
L 377.577426 159.710238 
L 377.3915 172.323776 
L 376.949349 184.937313 
L 376.739658 197.550851 
L 376.728668 210.164389 
L 376.56855 222.777927 
L 376.371394 235.391465 
L 376.229246 248.005003 
L 375.960363 260.618541 
z
" style="fill:#2cbdfe;"/>
   </g>
   <g id="PolyCollection_7">
    <path clip-path="url(#p56a15c8417)" d="M 69.730688 261.215654 
L 68.673939 261.215654 
L 68.502795 248.48304 
L 68.424374 235.750427 
L 68.401783 223.017814 
L 68.402571 210.2852 
L 68.426953 197.552587 
L 68.463408 184.819974 
L 68.491217 172.08736 
L 68.512053 159.354747 
L 68.527999 146.622134 
L 68.515703 133.88952 
L 68.463502 121.156907 
L 68.391001 108.424294 
L 68.297551 95.69168 
L 68.107319 82.959067 
L 67.57776 70.226453 
L 66.189776 57.49384 
L 63.583758 44.761227 
L 60.761743 32.028613 
L 60.013977 19.296 
L 78.39065 19.296 
L 78.39065 19.296 
L 77.642884 32.028613 
L 74.820869 44.761227 
L 72.214851 57.49384 
L 70.826867 70.226453 
L 70.297308 82.959067 
L 70.107076 95.69168 
L 70.013626 108.424294 
L 69.941125 121.156907 
L 69.888924 133.88952 
L 69.876628 146.622134 
L 69.892574 159.354747 
L 69.91341 172.08736 
L 69.941219 184.819974 
L 69.977674 197.552587 
L 70.002056 210.2852 
L 70.002844 223.017814 
L 69.980253 235.750427 
L 69.901832 248.48304 
L 69.730688 261.215654 
z
" style="fill:#f5b14c;fill-opacity:0.85;"/>
   </g>
   <g id="PolyCollection_8">
    <path clip-path="url(#p56a15c8417)" d="M 130.990803 261.215654 
L 129.924974 261.215654 
L 129.752551 248.48304 
L 129.673077 235.750427 
L 129.650035 223.017814 
L 129.65087 210.2852 
L 129.675395 197.552587 
L 129.712019 184.819974 
L 129.740116 172.08736 
L 129.761184 159.354747 
L 129.777086 146.622134 
L 129.764578 133.88952 
L 129.712065 121.156907 
L 129.638918 108.424294 
L 129.544186 95.69168 
L 129.351173 82.959067 
L 128.815768 70.226453 
L 127.420976 57.49384 
L 124.816939 44.761227 
L 122.008931 32.028613 
L 121.269552 19.296 
L 139.646224 19.296 
L 139.646224 19.296 
L 138.906845 32.028613 
L 136.098837 44.761227 
L 133.4948 57.49384 
L 132.100008 70.226453 
L 131.564603 82.959067 
L 131.37159 95.69168 
L 131.276859 108.424294 
L 131.203711 121.156907 
L 131.151198 133.88952 
L 131.13869 146.622134 
L 131.154592 159.354747 
L 131.17566 172.08736 
L 131.203757 184.819974 
L 131.240381 197.552587 
L 131.264906 210.2852 
L 131.265741 223.017814 
L 131.242699 235.750427 
L 131.163226 248.48304 
L 130.990803 261.215654 
z
" style="fill:#f5b14c;fill-opacity:0.85;"/>
   </g>
   <g id="PolyCollection_9">
    <path clip-path="url(#p56a15c8417)" d="M 192.246373 261.216 
L 191.180552 261.216 
L 191.008126 248.483368 
L 190.928651 235.750737 
L 190.90561 223.018105 
L 190.906447 210.285474 
L 190.930975 197.552842 
L 190.9676 184.820211 
L 190.995694 172.087579 
L 191.016757 159.354947 
L 191.032658 146.622316 
L 191.020152 133.889684 
L 190.967641 121.157053 
L 190.894492 108.424421 
L 190.799759 95.691789 
L 190.606746 82.959158 
L 190.071345 70.226526 
L 188.676558 57.493895 
L 186.072523 44.761263 
L 183.264509 32.028632 
L 182.525127 19.296 
L 200.901799 19.296 
L 200.901799 19.296 
L 200.162416 32.028632 
L 197.354403 44.761263 
L 194.750367 57.493895 
L 193.35558 70.226526 
L 192.820179 82.959158 
L 192.627167 95.691789 
L 192.532433 108.424421 
L 192.459284 121.157053 
L 192.406773 133.889684 
L 192.394267 146.622316 
L 192.410168 159.354947 
L 192.431232 172.087579 
L 192.459326 184.820211 
L 192.49595 197.552842 
L 192.520479 210.285474 
L 192.521316 223.018105 
L 192.498275 235.750737 
L 192.418799 248.483368 
L 192.246373 261.216 
z
" style="fill:#f5b14c;fill-opacity:0.85;"/>
   </g>
   <g id="PolyCollection_10">
    <path clip-path="url(#p56a15c8417)" d="M 253.501951 261.215769 
L 252.436124 261.215769 
L 252.263699 248.48315 
L 252.184226 235.75053 
L 252.161185 223.017911 
L 252.162021 210.285291 
L 252.186548 197.552672 
L 252.223172 184.820053 
L 252.251268 172.087433 
L 252.272333 159.354814 
L 252.288235 146.622194 
L 252.275727 133.889575 
L 252.223215 121.156955 
L 252.150065 108.424336 
L 252.055332 95.691717 
L 251.86232 82.959097 
L 251.326918 70.226478 
L 249.932129 57.493858 
L 247.328093 44.761239 
L 244.520082 32.028619 
L 243.780701 19.296 
L 262.157373 19.296 
L 262.157373 19.296 
L 261.417993 32.028619 
L 258.609982 44.761239 
L 256.005946 57.493858 
L 254.611157 70.226478 
L 254.075754 82.959097 
L 253.882742 95.691717 
L 253.788009 108.424336 
L 253.71486 121.156955 
L 253.662347 133.889575 
L 253.64984 146.622194 
L 253.665742 159.354814 
L 253.686807 172.087433 
L 253.714903 184.820053 
L 253.751527 197.552672 
L 253.776053 210.285291 
L 253.776889 223.017911 
L 253.753849 235.75053 
L 253.674375 248.48315 
L 253.501951 261.215769 
z
" style="fill:#f5b14c;fill-opacity:0.85;"/>
   </g>
   <g id="PolyCollection_11">
    <path clip-path="url(#p56a15c8417)" d="M 314.757522 261.216 
L 313.691701 261.216 
L 313.519276 248.483368 
L 313.4398 235.750737 
L 313.416759 223.018105 
L 313.417596 210.285474 
L 313.442124 197.552842 
L 313.478749 184.820211 
L 313.506843 172.087579 
L 313.527906 159.354947 
L 313.543808 146.622316 
L 313.531302 133.889684 
L 313.47879 121.157053 
L 313.405641 108.424421 
L 313.310908 95.691789 
L 313.117896 82.959158 
L 312.582494 70.226526 
L 311.187707 57.493895 
L 308.583672 44.761263 
L 305.775658 32.028632 
L 305.036276 19.296 
L 323.412948 19.296 
L 323.412948 19.296 
L 322.673566 32.028632 
L 319.865552 44.761263 
L 317.261516 57.493895 
L 315.86673 70.226526 
L 315.331328 82.959158 
L 315.138316 95.691789 
L 315.043583 108.424421 
L 314.970434 121.157053 
L 314.917922 133.889684 
L 314.905416 146.622316 
L 314.921318 159.354947 
L 314.942381 172.087579 
L 314.970475 184.820211 
L 315.0071 197.552842 
L 315.031628 210.285474 
L 315.032465 223.018105 
L 315.009424 235.750737 
L 314.929948 248.483368 
L 314.757522 261.216 
z
" style="fill:#f5b14c;fill-opacity:0.85;"/>
   </g>
   <g id="PolyCollection_12">
    <path clip-path="url(#p56a15c8417)" d="M 376.008561 261.215654 
L 374.951812 261.215654 
L 374.780668 248.48304 
L 374.702247 235.750427 
L 374.679656 223.017814 
L 374.680444 210.2852 
L 374.704826 197.552587 
L 374.741281 184.819974 
L 374.76909 172.08736 
L 374.789926 159.354747 
L 374.805872 146.622134 
L 374.793576 133.88952 
L 374.741375 121.156907 
L 374.668874 108.424294 
L 374.575424 95.69168 
L 374.385192 82.959067 
L 373.855633 70.226453 
L 372.467649 57.49384 
L 369.861631 44.761227 
L 367.039616 32.028613 
L 366.29185 19.296 
L 384.668523 19.296 
L 384.668523 19.296 
L 383.920757 32.028613 
L 381.098742 44.761227 
L 378.492724 57.49384 
L 377.10474 70.226453 
L 376.575181 82.959067 
L 376.384949 95.69168 
L 376.291499 108.424294 
L 376.218998 121.156907 
L 376.166797 133.88952 
L 376.154501 146.622134 
L 376.170447 159.354747 
L 376.191283 172.08736 
L 376.219092 184.819974 
L 376.255547 197.552587 
L 376.279929 210.2852 
L 376.280717 223.017814 
L 376.258126 235.750427 
L 376.179705 248.48304 
L 376.008561 261.215654 
z
" style="fill:#f5b14c;fill-opacity:0.85;"/>
   </g>
   <g id="matplotlib.axis_1">
    <g id="xtick_1">
     <g id="line2d_1">
      <defs>
       <path d="M 0 0 
L 0 3.5 
" id="m3169c9814d" style="stroke:#000000;stroke-width:0.8;"/>
      </defs>
      <g>
       <use style="stroke:#000000;stroke-width:0.8;" x="69.202313" xlink:href="#m3169c9814d" y="273.312"/>
      </g>
     </g>
     <g id="text_1">
      <!-- 1 -->
      <g transform="translate(66.021063 287.910437)scale(0.1 -0.1)">
       <defs>
        <path d="M 12.40625 8.296875 
L 28.515625 8.296875 
L 28.515625 63.921875 
L 10.984375 60.40625 
L 10.984375 69.390625 
L 28.421875 72.90625 
L 38.28125 72.90625 
L 38.28125 8.296875 
L 54.390625 8.296875 
L 54.390625 0 
L 12.40625 0 
z
" id="DejaVuSans-49"/>
       </defs>
       <use xlink:href="#DejaVuSans-49"/>
      </g>
     </g>
    </g>
    <g id="xtick_2">
     <g id="line2d_2">
      <g>
       <use style="stroke:#000000;stroke-width:0.8;" x="130.457888" xlink:href="#m3169c9814d" y="273.312"/>
      </g>
     </g>
     <g id="text_2">
      <!-- 5 -->
      <g transform="translate(127.276638 287.910437)scale(0.1 -0.1)">
       <defs>
        <path d="M 10.796875 72.90625 
L 49.515625 72.90625 
L 49.515625 64.59375 
L 19.828125 64.59375 
L 19.828125 46.734375 
Q 21.96875 47.46875 24.109375 47.828125 
Q 26.265625 48.1875 28.421875 48.1875 
Q 40.625 48.1875 47.75 41.5 
Q 54.890625 34.8125 54.890625 23.390625 
Q 54.890625 11.625 47.5625 5.09375 
Q 40.234375 -1.421875 26.90625 -1.421875 
Q 22.3125 -1.421875 17.546875 -0.640625 
Q 12.796875 0.140625 7.71875 1.703125 
L 7.71875 11.625 
Q 12.109375 9.234375 16.796875 8.0625 
Q 21.484375 6.890625 26.703125 6.890625 
Q 35.15625 6.890625 40.078125 11.328125 
Q 45.015625 15.765625 45.015625 23.390625 
Q 45.015625 31 40.078125 35.4375 
Q 35.15625 39.890625 26.703125 39.890625 
Q 22.75 39.890625 18.8125 39.015625 
Q 14.890625 38.140625 10.796875 36.28125 
z
" id="DejaVuSans-53"/>
       </defs>
       <use xlink:href="#DejaVuSans-53"/>
      </g>
     </g>
    </g>
    <g id="xtick_3">
     <g id="line2d_3">
      <g>
       <use style="stroke:#000000;stroke-width:0.8;" x="191.713463" xlink:href="#m3169c9814d" y="273.312"/>
      </g>
     </g>
     <g id="text_3">
      <!-- 10 -->
      <g transform="translate(185.350963 287.910437)scale(0.1 -0.1)">
       <defs>
        <path d="M 31.78125 66.40625 
Q 24.171875 66.40625 20.328125 58.90625 
Q 16.5 51.421875 16.5 36.375 
Q 16.5 21.390625 20.328125 13.890625 
Q 24.171875 6.390625 31.78125 6.390625 
Q 39.453125 6.390625 43.28125 13.890625 
Q 47.125 21.390625 47.125 36.375 
Q 47.125 51.421875 43.28125 58.90625 
Q 39.453125 66.40625 31.78125 66.40625 
z
M 31.78125 74.21875 
Q 44.046875 74.21875 50.515625 64.515625 
Q 56.984375 54.828125 56.984375 36.375 
Q 56.984375 17.96875 50.515625 8.265625 
Q 44.046875 -1.421875 31.78125 -1.421875 
Q 19.53125 -1.421875 13.0625 8.265625 
Q 6.59375 17.96875 6.59375 36.375 
Q 6.59375 54.828125 13.0625 64.515625 
Q 19.53125 74.21875 31.78125 74.21875 
z
" id="DejaVuSans-48"/>
       </defs>
       <use xlink:href="#DejaVuSans-49"/>
       <use x="63.623047" xlink:href="#DejaVuSans-48"/>
      </g>
     </g>
    </g>
    <g id="xtick_4">
     <g id="line2d_4">
      <g>
       <use style="stroke:#000000;stroke-width:0.8;" x="252.969037" xlink:href="#m3169c9814d" y="273.312"/>
      </g>
     </g>
     <g id="text_4">
      <!-- 25 -->
      <g transform="translate(246.606537 287.910437)scale(0.1 -0.1)">
       <defs>
        <path d="M 19.1875 8.296875 
L 53.609375 8.296875 
L 53.609375 0 
L 7.328125 0 
L 7.328125 8.296875 
Q 12.9375 14.109375 22.625 23.890625 
Q 32.328125 33.6875 34.8125 36.53125 
Q 39.546875 41.84375 41.421875 45.53125 
Q 43.3125 49.21875 43.3125 52.78125 
Q 43.3125 58.59375 39.234375 62.25 
Q 35.15625 65.921875 28.609375 65.921875 
Q 23.96875 65.921875 18.8125 64.3125 
Q 13.671875 62.703125 7.8125 59.421875 
L 7.8125 69.390625 
Q 13.765625 71.78125 18.9375 73 
Q 24.125 74.21875 28.421875 74.21875 
Q 39.75 74.21875 46.484375 68.546875 
Q 53.21875 62.890625 53.21875 53.421875 
Q 53.21875 48.921875 51.53125 44.890625 
Q 49.859375 40.875 45.40625 35.40625 
Q 44.1875 33.984375 37.640625 27.21875 
Q 31.109375 20.453125 19.1875 8.296875 
z
" id="DejaVuSans-50"/>
       </defs>
       <use xlink:href="#DejaVuSans-50"/>
       <use x="63.623047" xlink:href="#DejaVuSans-53"/>
      </g>
     </g>
    </g>
    <g id="xtick_5">
     <g id="line2d_5">
      <g>
       <use style="stroke:#000000;stroke-width:0.8;" x="314.224612" xlink:href="#m3169c9814d" y="273.312"/>
      </g>
     </g>
     <g id="text_5">
      <!-- 50 -->
      <g transform="translate(307.862112 287.910437)scale(0.1 -0.1)">
       <use xlink:href="#DejaVuSans-53"/>
       <use x="63.623047" xlink:href="#DejaVuSans-48"/>
      </g>
     </g>
    </g>
    <g id="xtick_6">
     <g id="line2d_6">
      <g>
       <use style="stroke:#000000;stroke-width:0.8;" x="375.480187" xlink:href="#m3169c9814d" y="273.312"/>
      </g>
     </g>
     <g id="text_6">
      <!-- 100 -->
      <g transform="translate(365.936437 287.910437)scale(0.1 -0.1)">
       <use xlink:href="#DejaVuSans-49"/>
       <use x="63.623047" xlink:href="#DejaVuSans-48"/>
       <use x="127.246094" xlink:href="#DejaVuSans-48"/>
      </g>
     </g>
    </g>
    <g id="text_7">
     <!-- Resolution -->
     <g transform="translate(196.21625 301.588562)scale(0.1 -0.1)">
      <defs>
       <path d="M 44.390625 34.1875 
Q 47.5625 33.109375 50.5625 29.59375 
Q 53.5625 26.078125 56.59375 19.921875 
L 66.609375 0 
L 56 0 
L 46.6875 18.703125 
Q 43.0625 26.03125 39.671875 28.421875 
Q 36.28125 30.8125 30.421875 30.8125 
L 19.671875 30.8125 
L 19.671875 0 
L 9.8125 0 
L 9.8125 72.90625 
L 32.078125 72.90625 
Q 44.578125 72.90625 50.734375 67.671875 
Q 56.890625 62.453125 56.890625 51.90625 
Q 56.890625 45.015625 53.6875 40.46875 
Q 50.484375 35.9375 44.390625 34.1875 
z
M 19.671875 64.796875 
L 19.671875 38.921875 
L 32.078125 38.921875 
Q 39.203125 38.921875 42.84375 42.21875 
Q 46.484375 45.515625 46.484375 51.90625 
Q 46.484375 58.296875 42.84375 61.546875 
Q 39.203125 64.796875 32.078125 64.796875 
z
" id="DejaVuSans-82"/>
       <path d="M 56.203125 29.59375 
L 56.203125 25.203125 
L 14.890625 25.203125 
Q 15.484375 15.921875 20.484375 11.0625 
Q 25.484375 6.203125 34.421875 6.203125 
Q 39.59375 6.203125 44.453125 7.46875 
Q 49.3125 8.734375 54.109375 11.28125 
L 54.109375 2.78125 
Q 49.265625 0.734375 44.1875 -0.34375 
Q 39.109375 -1.421875 33.890625 -1.421875 
Q 20.796875 -1.421875 13.15625 6.1875 
Q 5.515625 13.8125 5.515625 26.8125 
Q 5.515625 40.234375 12.765625 48.109375 
Q 20.015625 56 32.328125 56 
Q 43.359375 56 49.78125 48.890625 
Q 56.203125 41.796875 56.203125 29.59375 
z
M 47.21875 32.234375 
Q 47.125 39.59375 43.09375 43.984375 
Q 39.0625 48.390625 32.421875 48.390625 
Q 24.90625 48.390625 20.390625 44.140625 
Q 15.875 39.890625 15.1875 32.171875 
z
" id="DejaVuSans-101"/>
       <path d="M 44.28125 53.078125 
L 44.28125 44.578125 
Q 40.484375 46.53125 36.375 47.5 
Q 32.28125 48.484375 27.875 48.484375 
Q 21.1875 48.484375 17.84375 46.4375 
Q 14.5 44.390625 14.5 40.28125 
Q 14.5 37.15625 16.890625 35.375 
Q 19.28125 33.59375 26.515625 31.984375 
L 29.59375 31.296875 
Q 39.15625 29.25 43.1875 25.515625 
Q 47.21875 21.78125 47.21875 15.09375 
Q 47.21875 7.46875 41.1875 3.015625 
Q 35.15625 -1.421875 24.609375 -1.421875 
Q 20.21875 -1.421875 15.453125 -0.5625 
Q 10.6875 0.296875 5.421875 2 
L 5.421875 11.28125 
Q 10.40625 8.6875 15.234375 7.390625 
Q 20.0625 6.109375 24.8125 6.109375 
Q 31.15625 6.109375 34.5625 8.28125 
Q 37.984375 10.453125 37.984375 14.40625 
Q 37.984375 18.0625 35.515625 20.015625 
Q 33.0625 21.96875 24.703125 23.78125 
L 21.578125 24.515625 
Q 13.234375 26.265625 9.515625 29.90625 
Q 5.8125 33.546875 5.8125 39.890625 
Q 5.8125 47.609375 11.28125 51.796875 
Q 16.75 56 26.8125 56 
Q 31.78125 56 36.171875 55.265625 
Q 40.578125 54.546875 44.28125 53.078125 
z
" id="DejaVuSans-115"/>
       <path d="M 30.609375 48.390625 
Q 23.390625 48.390625 19.1875 42.75 
Q 14.984375 37.109375 14.984375 27.296875 
Q 14.984375 17.484375 19.15625 11.84375 
Q 23.34375 6.203125 30.609375 6.203125 
Q 37.796875 6.203125 41.984375 11.859375 
Q 46.1875 17.53125 46.1875 27.296875 
Q 46.1875 37.015625 41.984375 42.703125 
Q 37.796875 48.390625 30.609375 48.390625 
z
M 30.609375 56 
Q 42.328125 56 49.015625 48.375 
Q 55.71875 40.765625 55.71875 27.296875 
Q 55.71875 13.875 49.015625 6.21875 
Q 42.328125 -1.421875 30.609375 -1.421875 
Q 18.84375 -1.421875 12.171875 6.21875 
Q 5.515625 13.875 5.515625 27.296875 
Q 5.515625 40.765625 12.171875 48.375 
Q 18.84375 56 30.609375 56 
z
" id="DejaVuSans-111"/>
       <path d="M 9.421875 75.984375 
L 18.40625 75.984375 
L 18.40625 0 
L 9.421875 0 
z
" id="DejaVuSans-108"/>
       <path d="M 8.5 21.578125 
L 8.5 54.6875 
L 17.484375 54.6875 
L 17.484375 21.921875 
Q 17.484375 14.15625 20.5 10.265625 
Q 23.53125 6.390625 29.59375 6.390625 
Q 36.859375 6.390625 41.078125 11.03125 
Q 45.3125 15.671875 45.3125 23.6875 
L 45.3125 54.6875 
L 54.296875 54.6875 
L 54.296875 0 
L 45.3125 0 
L 45.3125 8.40625 
Q 42.046875 3.421875 37.71875 1 
Q 33.40625 -1.421875 27.6875 -1.421875 
Q 18.265625 -1.421875 13.375 4.4375 
Q 8.5 10.296875 8.5 21.578125 
z
M 31.109375 56 
z
" id="DejaVuSans-117"/>
       <path d="M 18.3125 70.21875 
L 18.3125 54.6875 
L 36.8125 54.6875 
L 36.8125 47.703125 
L 18.3125 47.703125 
L 18.3125 18.015625 
Q 18.3125 11.328125 20.140625 9.421875 
Q 21.96875 7.515625 27.59375 7.515625 
L 36.8125 7.515625 
L 36.8125 0 
L 27.59375 0 
Q 17.1875 0 13.234375 3.875 
Q 9.28125 7.765625 9.28125 18.015625 
L 9.28125 47.703125 
L 2.6875 47.703125 
L 2.6875 54.6875 
L 9.28125 54.6875 
L 9.28125 70.21875 
z
" id="DejaVuSans-116"/>
       <path d="M 9.421875 54.6875 
L 18.40625 54.6875 
L 18.40625 0 
L 9.421875 0 
z
M 9.421875 75.984375 
L 18.40625 75.984375 
L 18.40625 64.59375 
L 9.421875 64.59375 
z
" id="DejaVuSans-105"/>
       <path d="M 54.890625 33.015625 
L 54.890625 0 
L 45.90625 0 
L 45.90625 32.71875 
Q 45.90625 40.484375 42.875 44.328125 
Q 39.84375 48.1875 33.796875 48.1875 
Q 26.515625 48.1875 22.3125 43.546875 
Q 18.109375 38.921875 18.109375 30.90625 
L 18.109375 0 
L 9.078125 0 
L 9.078125 54.6875 
L 18.109375 54.6875 
L 18.109375 46.1875 
Q 21.34375 51.125 25.703125 53.5625 
Q 30.078125 56 35.796875 56 
Q 45.21875 56 50.046875 50.171875 
Q 54.890625 44.34375 54.890625 33.015625 
z
" id="DejaVuSans-110"/>
      </defs>
      <use xlink:href="#DejaVuSans-82"/>
      <use x="64.982422" xlink:href="#DejaVuSans-101"/>
      <use x="126.505859" xlink:href="#DejaVuSans-115"/>
      <use x="178.605469" xlink:href="#DejaVuSans-111"/>
      <use x="239.787109" xlink:href="#DejaVuSans-108"/>
      <use x="267.570312" xlink:href="#DejaVuSans-117"/>
      <use x="330.949219" xlink:href="#DejaVuSans-116"/>
      <use x="370.158203" xlink:href="#DejaVuSans-105"/>
      <use x="397.941406" xlink:href="#DejaVuSans-111"/>
      <use x="459.123047" xlink:href="#DejaVuSans-110"/>
     </g>
    </g>
   </g>
   <g id="matplotlib.axis_2">
    <g id="ytick_1">
     <g id="line2d_7">
      <defs>
       <path d="M 0 0 
L -3.5 0 
" id="mfe287fa33b" style="stroke:#000000;stroke-width:0.8;"/>
      </defs>
      <g>
       <use style="stroke:#000000;stroke-width:0.8;" x="43.78125" xlink:href="#mfe287fa33b" y="261.251111"/>
      </g>
     </g>
     <g id="text_8">
      <!-- 0.5 -->
      <g transform="translate(20.878125 265.050329)scale(0.1 -0.1)">
       <defs>
        <path d="M 10.6875 12.40625 
L 21 12.40625 
L 21 0 
L 10.6875 0 
z
" id="DejaVuSans-46"/>
       </defs>
       <use xlink:href="#DejaVuSans-48"/>
       <use x="63.623047" xlink:href="#DejaVuSans-46"/>
       <use x="95.410156" xlink:href="#DejaVuSans-53"/>
      </g>
     </g>
    </g>
    <g id="ytick_2">
     <g id="line2d_8">
      <g>
       <use style="stroke:#000000;stroke-width:0.8;" x="43.78125" xlink:href="#mfe287fa33b" y="212.848514"/>
      </g>
     </g>
     <g id="text_9">
      <!-- 0.6 -->
      <g transform="translate(20.878125 216.647733)scale(0.1 -0.1)">
       <defs>
        <path d="M 33.015625 40.375 
Q 26.375 40.375 22.484375 35.828125 
Q 18.609375 31.296875 18.609375 23.390625 
Q 18.609375 15.53125 22.484375 10.953125 
Q 26.375 6.390625 33.015625 6.390625 
Q 39.65625 6.390625 43.53125 10.953125 
Q 47.40625 15.53125 47.40625 23.390625 
Q 47.40625 31.296875 43.53125 35.828125 
Q 39.65625 40.375 33.015625 40.375 
z
M 52.59375 71.296875 
L 52.59375 62.3125 
Q 48.875 64.0625 45.09375 64.984375 
Q 41.3125 65.921875 37.59375 65.921875 
Q 27.828125 65.921875 22.671875 59.328125 
Q 17.53125 52.734375 16.796875 39.40625 
Q 19.671875 43.65625 24.015625 45.921875 
Q 28.375 48.1875 33.59375 48.1875 
Q 44.578125 48.1875 50.953125 41.515625 
Q 57.328125 34.859375 57.328125 23.390625 
Q 57.328125 12.15625 50.6875 5.359375 
Q 44.046875 -1.421875 33.015625 -1.421875 
Q 20.359375 -1.421875 13.671875 8.265625 
Q 6.984375 17.96875 6.984375 36.375 
Q 6.984375 53.65625 15.1875 63.9375 
Q 23.390625 74.21875 37.203125 74.21875 
Q 40.921875 74.21875 44.703125 73.484375 
Q 48.484375 72.75 52.59375 71.296875 
z
" id="DejaVuSans-54"/>
       </defs>
       <use xlink:href="#DejaVuSans-48"/>
       <use x="63.623047" xlink:href="#DejaVuSans-46"/>
       <use x="95.410156" xlink:href="#DejaVuSans-54"/>
      </g>
     </g>
    </g>
    <g id="ytick_3">
     <g id="line2d_9">
      <g>
       <use style="stroke:#000000;stroke-width:0.8;" x="43.78125" xlink:href="#mfe287fa33b" y="164.445917"/>
      </g>
     </g>
     <g id="text_10">
      <!-- 0.7 -->
      <g transform="translate(20.878125 168.245136)scale(0.1 -0.1)">
       <defs>
        <path d="M 8.203125 72.90625 
L 55.078125 72.90625 
L 55.078125 68.703125 
L 28.609375 0 
L 18.3125 0 
L 43.21875 64.59375 
L 8.203125 64.59375 
z
" id="DejaVuSans-55"/>
       </defs>
       <use xlink:href="#DejaVuSans-48"/>
       <use x="63.623047" xlink:href="#DejaVuSans-46"/>
       <use x="95.410156" xlink:href="#DejaVuSans-55"/>
      </g>
     </g>
    </g>
    <g id="ytick_4">
     <g id="line2d_10">
      <g>
       <use style="stroke:#000000;stroke-width:0.8;" x="43.78125" xlink:href="#mfe287fa33b" y="116.04332"/>
      </g>
     </g>
     <g id="text_11">
      <!-- 0.8 -->
      <g transform="translate(20.878125 119.842539)scale(0.1 -0.1)">
       <defs>
        <path d="M 31.78125 34.625 
Q 24.75 34.625 20.71875 30.859375 
Q 16.703125 27.09375 16.703125 20.515625 
Q 16.703125 13.921875 20.71875 10.15625 
Q 24.75 6.390625 31.78125 6.390625 
Q 38.8125 6.390625 42.859375 10.171875 
Q 46.921875 13.96875 46.921875 20.515625 
Q 46.921875 27.09375 42.890625 30.859375 
Q 38.875 34.625 31.78125 34.625 
z
M 21.921875 38.8125 
Q 15.578125 40.375 12.03125 44.71875 
Q 8.5 49.078125 8.5 55.328125 
Q 8.5 64.0625 14.71875 69.140625 
Q 20.953125 74.21875 31.78125 74.21875 
Q 42.671875 74.21875 48.875 69.140625 
Q 55.078125 64.0625 55.078125 55.328125 
Q 55.078125 49.078125 51.53125 44.71875 
Q 48 40.375 41.703125 38.8125 
Q 48.828125 37.15625 52.796875 32.3125 
Q 56.78125 27.484375 56.78125 20.515625 
Q 56.78125 9.90625 50.3125 4.234375 
Q 43.84375 -1.421875 31.78125 -1.421875 
Q 19.734375 -1.421875 13.25 4.234375 
Q 6.78125 9.90625 6.78125 20.515625 
Q 6.78125 27.484375 10.78125 32.3125 
Q 14.796875 37.15625 21.921875 38.8125 
z
M 18.3125 54.390625 
Q 18.3125 48.734375 21.84375 45.5625 
Q 25.390625 42.390625 31.78125 42.390625 
Q 38.140625 42.390625 41.71875 45.5625 
Q 45.3125 48.734375 45.3125 54.390625 
Q 45.3125 60.0625 41.71875 63.234375 
Q 38.140625 66.40625 31.78125 66.40625 
Q 25.390625 66.40625 21.84375 63.234375 
Q 18.3125 60.0625 18.3125 54.390625 
z
" id="DejaVuSans-56"/>
       </defs>
       <use xlink:href="#DejaVuSans-48"/>
       <use x="63.623047" xlink:href="#DejaVuSans-46"/>
       <use x="95.410156" xlink:href="#DejaVuSans-56"/>
      </g>
     </g>
    </g>
    <g id="ytick_5">
     <g id="line2d_11">
      <g>
       <use style="stroke:#000000;stroke-width:0.8;" x="43.78125" xlink:href="#mfe287fa33b" y="67.640723"/>
      </g>
     </g>
     <g id="text_12">
      <!-- 0.9 -->
      <g transform="translate(20.878125 71.439942)scale(0.1 -0.1)">
       <defs>
        <path d="M 10.984375 1.515625 
L 10.984375 10.5 
Q 14.703125 8.734375 18.5 7.8125 
Q 22.3125 6.890625 25.984375 6.890625 
Q 35.75 6.890625 40.890625 13.453125 
Q 46.046875 20.015625 46.78125 33.40625 
Q 43.953125 29.203125 39.59375 26.953125 
Q 35.25 24.703125 29.984375 24.703125 
Q 19.046875 24.703125 12.671875 31.3125 
Q 6.296875 37.9375 6.296875 49.421875 
Q 6.296875 60.640625 12.9375 67.421875 
Q 19.578125 74.21875 30.609375 74.21875 
Q 43.265625 74.21875 49.921875 64.515625 
Q 56.59375 54.828125 56.59375 36.375 
Q 56.59375 19.140625 48.40625 8.859375 
Q 40.234375 -1.421875 26.421875 -1.421875 
Q 22.703125 -1.421875 18.890625 -0.6875 
Q 15.09375 0.046875 10.984375 1.515625 
z
M 30.609375 32.421875 
Q 37.25 32.421875 41.125 36.953125 
Q 45.015625 41.5 45.015625 49.421875 
Q 45.015625 57.28125 41.125 61.84375 
Q 37.25 66.40625 30.609375 66.40625 
Q 23.96875 66.40625 20.09375 61.84375 
Q 16.21875 57.28125 16.21875 49.421875 
Q 16.21875 41.5 20.09375 36.953125 
Q 23.96875 32.421875 30.609375 32.421875 
z
" id="DejaVuSans-57"/>
       </defs>
       <use xlink:href="#DejaVuSans-48"/>
       <use x="63.623047" xlink:href="#DejaVuSans-46"/>
       <use x="95.410156" xlink:href="#DejaVuSans-57"/>
      </g>
     </g>
    </g>
    <g id="ytick_6">
     <g id="line2d_12">
      <g>
       <use style="stroke:#000000;stroke-width:0.8;" x="43.78125" xlink:href="#mfe287fa33b" y="19.238127"/>
      </g>
     </g>
     <g id="text_13">
      <!-- 1.0 -->
      <g transform="translate(20.878125 23.037345)scale(0.1 -0.1)">
       <use xlink:href="#DejaVuSans-49"/>
       <use x="63.623047" xlink:href="#DejaVuSans-46"/>
       <use x="95.410156" xlink:href="#DejaVuSans-48"/>
      </g>
     </g>
    </g>
    <g id="text_14">
     <!-- Latency Distribution (ms)  -->
     <g transform="translate(14.798438 205.332562)rotate(-90)scale(0.1 -0.1)">
      <defs>
       <path d="M 9.8125 72.90625 
L 19.671875 72.90625 
L 19.671875 8.296875 
L 55.171875 8.296875 
L 55.171875 0 
L 9.8125 0 
z
" id="DejaVuSans-76"/>
       <path d="M 34.28125 27.484375 
Q 23.390625 27.484375 19.1875 25 
Q 14.984375 22.515625 14.984375 16.5 
Q 14.984375 11.71875 18.140625 8.90625 
Q 21.296875 6.109375 26.703125 6.109375 
Q 34.1875 6.109375 38.703125 11.40625 
Q 43.21875 16.703125 43.21875 25.484375 
L 43.21875 27.484375 
z
M 52.203125 31.203125 
L 52.203125 0 
L 43.21875 0 
L 43.21875 8.296875 
Q 40.140625 3.328125 35.546875 0.953125 
Q 30.953125 -1.421875 24.3125 -1.421875 
Q 15.921875 -1.421875 10.953125 3.296875 
Q 6 8.015625 6 15.921875 
Q 6 25.140625 12.171875 29.828125 
Q 18.359375 34.515625 30.609375 34.515625 
L 43.21875 34.515625 
L 43.21875 35.40625 
Q 43.21875 41.609375 39.140625 45 
Q 35.0625 48.390625 27.6875 48.390625 
Q 23 48.390625 18.546875 47.265625 
Q 14.109375 46.140625 10.015625 43.890625 
L 10.015625 52.203125 
Q 14.9375 54.109375 19.578125 55.046875 
Q 24.21875 56 28.609375 56 
Q 40.484375 56 46.34375 49.84375 
Q 52.203125 43.703125 52.203125 31.203125 
z
" id="DejaVuSans-97"/>
       <path d="M 48.78125 52.59375 
L 48.78125 44.1875 
Q 44.96875 46.296875 41.140625 47.34375 
Q 37.3125 48.390625 33.40625 48.390625 
Q 24.65625 48.390625 19.8125 42.84375 
Q 14.984375 37.3125 14.984375 27.296875 
Q 14.984375 17.28125 19.8125 11.734375 
Q 24.65625 6.203125 33.40625 6.203125 
Q 37.3125 6.203125 41.140625 7.25 
Q 44.96875 8.296875 48.78125 10.40625 
L 48.78125 2.09375 
Q 45.015625 0.34375 40.984375 -0.53125 
Q 36.96875 -1.421875 32.421875 -1.421875 
Q 20.0625 -1.421875 12.78125 6.34375 
Q 5.515625 14.109375 5.515625 27.296875 
Q 5.515625 40.671875 12.859375 48.328125 
Q 20.21875 56 33.015625 56 
Q 37.15625 56 41.109375 55.140625 
Q 45.0625 54.296875 48.78125 52.59375 
z
" id="DejaVuSans-99"/>
       <path d="M 32.171875 -5.078125 
Q 28.375 -14.84375 24.75 -17.8125 
Q 21.140625 -20.796875 15.09375 -20.796875 
L 7.90625 -20.796875 
L 7.90625 -13.28125 
L 13.1875 -13.28125 
Q 16.890625 -13.28125 18.9375 -11.515625 
Q 21 -9.765625 23.484375 -3.21875 
L 25.09375 0.875 
L 2.984375 54.6875 
L 12.5 54.6875 
L 29.59375 11.921875 
L 46.6875 54.6875 
L 56.203125 54.6875 
z
" id="DejaVuSans-121"/>
       <path id="DejaVuSans-32"/>
       <path d="M 19.671875 64.796875 
L 19.671875 8.109375 
L 31.59375 8.109375 
Q 46.6875 8.109375 53.6875 14.9375 
Q 60.6875 21.78125 60.6875 36.53125 
Q 60.6875 51.171875 53.6875 57.984375 
Q 46.6875 64.796875 31.59375 64.796875 
z
M 9.8125 72.90625 
L 30.078125 72.90625 
Q 51.265625 72.90625 61.171875 64.09375 
Q 71.09375 55.28125 71.09375 36.53125 
Q 71.09375 17.671875 61.125 8.828125 
Q 51.171875 0 30.078125 0 
L 9.8125 0 
z
" id="DejaVuSans-68"/>
       <path d="M 41.109375 46.296875 
Q 39.59375 47.171875 37.8125 47.578125 
Q 36.03125 48 33.890625 48 
Q 26.265625 48 22.1875 43.046875 
Q 18.109375 38.09375 18.109375 28.8125 
L 18.109375 0 
L 9.078125 0 
L 9.078125 54.6875 
L 18.109375 54.6875 
L 18.109375 46.1875 
Q 20.953125 51.171875 25.484375 53.578125 
Q 30.03125 56 36.53125 56 
Q 37.453125 56 38.578125 55.875 
Q 39.703125 55.765625 41.0625 55.515625 
z
" id="DejaVuSans-114"/>
       <path d="M 48.6875 27.296875 
Q 48.6875 37.203125 44.609375 42.84375 
Q 40.53125 48.484375 33.40625 48.484375 
Q 26.265625 48.484375 22.1875 42.84375 
Q 18.109375 37.203125 18.109375 27.296875 
Q 18.109375 17.390625 22.1875 11.75 
Q 26.265625 6.109375 33.40625 6.109375 
Q 40.53125 6.109375 44.609375 11.75 
Q 48.6875 17.390625 48.6875 27.296875 
z
M 18.109375 46.390625 
Q 20.953125 51.265625 25.265625 53.625 
Q 29.59375 56 35.59375 56 
Q 45.5625 56 51.78125 48.09375 
Q 58.015625 40.1875 58.015625 27.296875 
Q 58.015625 14.40625 51.78125 6.484375 
Q 45.5625 -1.421875 35.59375 -1.421875 
Q 29.59375 -1.421875 25.265625 0.953125 
Q 20.953125 3.328125 18.109375 8.203125 
L 18.109375 0 
L 9.078125 0 
L 9.078125 75.984375 
L 18.109375 75.984375 
z
" id="DejaVuSans-98"/>
       <path d="M 31 75.875 
Q 24.46875 64.65625 21.28125 53.65625 
Q 18.109375 42.671875 18.109375 31.390625 
Q 18.109375 20.125 21.3125 9.0625 
Q 24.515625 -2 31 -13.1875 
L 23.1875 -13.1875 
Q 15.875 -1.703125 12.234375 9.375 
Q 8.59375 20.453125 8.59375 31.390625 
Q 8.59375 42.28125 12.203125 53.3125 
Q 15.828125 64.359375 23.1875 75.875 
z
" id="DejaVuSans-40"/>
       <path d="M 52 44.1875 
Q 55.375 50.25 60.0625 53.125 
Q 64.75 56 71.09375 56 
Q 79.640625 56 84.28125 50.015625 
Q 88.921875 44.046875 88.921875 33.015625 
L 88.921875 0 
L 79.890625 0 
L 79.890625 32.71875 
Q 79.890625 40.578125 77.09375 44.375 
Q 74.3125 48.1875 68.609375 48.1875 
Q 61.625 48.1875 57.5625 43.546875 
Q 53.515625 38.921875 53.515625 30.90625 
L 53.515625 0 
L 44.484375 0 
L 44.484375 32.71875 
Q 44.484375 40.625 41.703125 44.40625 
Q 38.921875 48.1875 33.109375 48.1875 
Q 26.21875 48.1875 22.15625 43.53125 
Q 18.109375 38.875 18.109375 30.90625 
L 18.109375 0 
L 9.078125 0 
L 9.078125 54.6875 
L 18.109375 54.6875 
L 18.109375 46.1875 
Q 21.1875 51.21875 25.484375 53.609375 
Q 29.78125 56 35.6875 56 
Q 41.65625 56 45.828125 52.96875 
Q 50 49.953125 52 44.1875 
z
" id="DejaVuSans-109"/>
       <path d="M 8.015625 75.875 
L 15.828125 75.875 
Q 23.140625 64.359375 26.78125 53.3125 
Q 30.421875 42.28125 30.421875 31.390625 
Q 30.421875 20.453125 26.78125 9.375 
Q 23.140625 -1.703125 15.828125 -13.1875 
L 8.015625 -13.1875 
Q 14.5 -2 17.703125 9.0625 
Q 20.90625 20.125 20.90625 31.390625 
Q 20.90625 42.671875 17.703125 53.65625 
Q 14.5 64.65625 8.015625 75.875 
z
" id="DejaVuSans-41"/>
      </defs>
      <use xlink:href="#DejaVuSans-76"/>
      <use x="55.712891" xlink:href="#DejaVuSans-97"/>
      <use x="116.992188" xlink:href="#DejaVuSans-116"/>
      <use x="156.201172" xlink:href="#DejaVuSans-101"/>
      <use x="217.724609" xlink:href="#DejaVuSans-110"/>
      <use x="281.103516" xlink:href="#DejaVuSans-99"/>
      <use x="336.083984" xlink:href="#DejaVuSans-121"/>
      <use x="395.263672" xlink:href="#DejaVuSans-32"/>
      <use x="427.050781" xlink:href="#DejaVuSans-68"/>
      <use x="504.052734" xlink:href="#DejaVuSans-105"/>
      <use x="531.835938" xlink:href="#DejaVuSans-115"/>
      <use x="583.935547" xlink:href="#DejaVuSans-116"/>
      <use x="623.144531" xlink:href="#DejaVuSans-114"/>
      <use x="664.257812" xlink:href="#DejaVuSans-105"/>
      <use x="692.041016" xlink:href="#DejaVuSans-98"/>
      <use x="755.517578" xlink:href="#DejaVuSans-117"/>
      <use x="818.896484" xlink:href="#DejaVuSans-116"/>
      <use x="858.105469" xlink:href="#DejaVuSans-105"/>
      <use x="885.888672" xlink:href="#DejaVuSans-111"/>
      <use x="947.070312" xlink:href="#DejaVuSans-110"/>
      <use x="1010.449219" xlink:href="#DejaVuSans-32"/>
      <use x="1042.236328" xlink:href="#DejaVuSans-40"/>
      <use x="1081.25" xlink:href="#DejaVuSans-109"/>
      <use x="1178.662109" xlink:href="#DejaVuSans-115"/>
      <use x="1230.761719" xlink:href="#DejaVuSans-41"/>
      <use x="1269.775391" xlink:href="#DejaVuSans-32"/>
     </g>
    </g>
   </g>
   <g id="LineCollection_1">
    <path clip-path="url(#p56a15c8417)" d="M 64.608145 85.354438 
L 73.796482 85.354438 
" style="fill:none;stroke:#1f77b4;stroke-width:1.5;"/>
    <path clip-path="url(#p56a15c8417)" d="M 125.86372 85.465338 
L 135.052056 85.465338 
" style="fill:none;stroke:#1f77b4;stroke-width:1.5;"/>
    <path clip-path="url(#p56a15c8417)" d="M 187.119295 85.465309 
L 196.307631 85.465309 
" style="fill:none;stroke:#1f77b4;stroke-width:1.5;"/>
    <path clip-path="url(#p56a15c8417)" d="M 248.374869 85.465309 
L 257.563205 85.465309 
" style="fill:none;stroke:#1f77b4;stroke-width:1.5;"/>
    <path clip-path="url(#p56a15c8417)" d="M 309.630444 85.465309 
L 318.81878 85.465309 
" style="fill:none;stroke:#1f77b4;stroke-width:1.5;"/>
    <path clip-path="url(#p56a15c8417)" d="M 370.886018 85.354438 
L 380.074355 85.354438 
" style="fill:none;stroke:#1f77b4;stroke-width:1.5;"/>
   </g>
   <g id="LineCollection_2">
    <path clip-path="url(#p56a15c8417)" d="M 64.608145 20.96132 
L 73.796482 20.96132 
" style="fill:none;stroke:#1f77b4;stroke-width:1.5;"/>
    <path clip-path="url(#p56a15c8417)" d="M 125.86372 20.96132 
L 135.052056 20.96132 
" style="fill:none;stroke:#1f77b4;stroke-width:1.5;"/>
    <path clip-path="url(#p56a15c8417)" d="M 187.119295 20.96132 
L 196.307631 20.96132 
" style="fill:none;stroke:#1f77b4;stroke-width:1.5;"/>
    <path clip-path="url(#p56a15c8417)" d="M 248.374869 20.96132 
L 257.563205 20.96132 
" style="fill:none;stroke:#1f77b4;stroke-width:1.5;"/>
    <path clip-path="url(#p56a15c8417)" d="M 309.630444 20.96132 
L 318.81878 20.96132 
" style="fill:none;stroke:#1f77b4;stroke-width:1.5;"/>
    <path clip-path="url(#p56a15c8417)" d="M 370.886018 20.96132 
L 380.074355 20.96132 
" style="fill:none;stroke:#1f77b4;stroke-width:1.5;"/>
   </g>
   <g id="LineCollection_3">
    <path clip-path="url(#p56a15c8417)" d="M 64.608145 260.618541 
L 73.796482 260.618541 
" style="fill:none;stroke:#1f77b4;stroke-width:1.5;"/>
    <path clip-path="url(#p56a15c8417)" d="M 125.86372 260.618541 
L 135.052056 260.618541 
" style="fill:none;stroke:#1f77b4;stroke-width:1.5;"/>
    <path clip-path="url(#p56a15c8417)" d="M 187.119295 260.618253 
L 196.307631 260.618253 
" style="fill:none;stroke:#1f77b4;stroke-width:1.5;"/>
    <path clip-path="url(#p56a15c8417)" d="M 248.374869 260.618137 
L 257.563205 260.618137 
" style="fill:none;stroke:#1f77b4;stroke-width:1.5;"/>
    <path clip-path="url(#p56a15c8417)" d="M 309.630444 260.618253 
L 318.81878 260.618253 
" style="fill:none;stroke:#1f77b4;stroke-width:1.5;"/>
    <path clip-path="url(#p56a15c8417)" d="M 370.886018 260.618541 
L 380.074355 260.618541 
" style="fill:none;stroke:#1f77b4;stroke-width:1.5;"/>
   </g>
   <g id="LineCollection_4">
    <path clip-path="url(#p56a15c8417)" d="M 69.202313 260.618541 
L 69.202313 20.96132 
" style="fill:none;stroke:#1f77b4;stroke-width:1.5;"/>
    <path clip-path="url(#p56a15c8417)" d="M 130.457888 260.618541 
L 130.457888 20.96132 
" style="fill:none;stroke:#1f77b4;stroke-width:1.5;"/>
    <path clip-path="url(#p56a15c8417)" d="M 191.713463 260.618253 
L 191.713463 20.96132 
" style="fill:none;stroke:#1f77b4;stroke-width:1.5;"/>
    <path clip-path="url(#p56a15c8417)" d="M 252.969037 260.618137 
L 252.969037 20.96132 
" style="fill:none;stroke:#1f77b4;stroke-width:1.5;"/>
    <path clip-path="url(#p56a15c8417)" d="M 314.224612 260.618253 
L 314.224612 20.96132 
" style="fill:none;stroke:#1f77b4;stroke-width:1.5;"/>
    <path clip-path="url(#p56a15c8417)" d="M 375.480187 260.618541 
L 375.480187 20.96132 
" style="fill:none;stroke:#1f77b4;stroke-width:1.5;"/>
   </g>
   <g id="LineCollection_5">
    <path clip-path="url(#p56a15c8417)" d="M 64.608145 67.980446 
L 73.796482 67.980446 
" style="fill:none;stroke:#1f77b4;stroke-width:1.5;"/>
    <path clip-path="url(#p56a15c8417)" d="M 125.86372 68.090827 
L 135.052056 68.090827 
" style="fill:none;stroke:#1f77b4;stroke-width:1.5;"/>
    <path clip-path="url(#p56a15c8417)" d="M 187.119295 68.09074 
L 196.307631 68.09074 
" style="fill:none;stroke:#1f77b4;stroke-width:1.5;"/>
    <path clip-path="url(#p56a15c8417)" d="M 248.374869 68.090538 
L 257.563205 68.090538 
" style="fill:none;stroke:#1f77b4;stroke-width:1.5;"/>
    <path clip-path="url(#p56a15c8417)" d="M 309.630444 68.09074 
L 318.81878 68.09074 
" style="fill:none;stroke:#1f77b4;stroke-width:1.5;"/>
    <path clip-path="url(#p56a15c8417)" d="M 370.886018 67.980446 
L 380.074355 67.980446 
" style="fill:none;stroke:#1f77b4;stroke-width:1.5;"/>
   </g>
   <g id="LineCollection_6">
    <path clip-path="url(#p56a15c8417)" d="M 64.608145 58.01204 
L 73.796482 58.01204 
" style="fill:none;stroke:#ff7f0e;stroke-width:1.5;"/>
    <path clip-path="url(#p56a15c8417)" d="M 125.86372 58.191315 
L 135.052056 58.191315 
" style="fill:none;stroke:#ff7f0e;stroke-width:1.5;"/>
    <path clip-path="url(#p56a15c8417)" d="M 187.119295 58.191315 
L 196.307631 58.191315 
" style="fill:none;stroke:#ff7f0e;stroke-width:1.5;"/>
    <path clip-path="url(#p56a15c8417)" d="M 248.374869 58.191315 
L 257.563205 58.191315 
" style="fill:none;stroke:#ff7f0e;stroke-width:1.5;"/>
    <path clip-path="url(#p56a15c8417)" d="M 309.630444 58.191315 
L 318.81878 58.191315 
" style="fill:none;stroke:#ff7f0e;stroke-width:1.5;"/>
    <path clip-path="url(#p56a15c8417)" d="M 370.886018 58.01204 
L 380.074355 58.01204 
" style="fill:none;stroke:#ff7f0e;stroke-width:1.5;"/>
   </g>
   <g id="LineCollection_7">
    <path clip-path="url(#p56a15c8417)" d="M 64.608145 19.296 
L 73.796482 19.296 
" style="fill:none;stroke:#ff7f0e;stroke-width:1.5;"/>
    <path clip-path="url(#p56a15c8417)" d="M 125.86372 19.296 
L 135.052056 19.296 
" style="fill:none;stroke:#ff7f0e;stroke-width:1.5;"/>
    <path clip-path="url(#p56a15c8417)" d="M 187.119295 19.296 
L 196.307631 19.296 
" style="fill:none;stroke:#ff7f0e;stroke-width:1.5;"/>
    <path clip-path="url(#p56a15c8417)" d="M 248.374869 19.296 
L 257.563205 19.296 
" style="fill:none;stroke:#ff7f0e;stroke-width:1.5;"/>
    <path clip-path="url(#p56a15c8417)" d="M 309.630444 19.296 
L 318.81878 19.296 
" style="fill:none;stroke:#ff7f0e;stroke-width:1.5;"/>
    <path clip-path="url(#p56a15c8417)" d="M 370.886018 19.296 
L 380.074355 19.296 
" style="fill:none;stroke:#ff7f0e;stroke-width:1.5;"/>
   </g>
   <g id="LineCollection_8">
    <path clip-path="url(#p56a15c8417)" d="M 64.608145 261.215654 
L 73.796482 261.215654 
" style="fill:none;stroke:#ff7f0e;stroke-width:1.5;"/>
    <path clip-path="url(#p56a15c8417)" d="M 125.86372 261.215654 
L 135.052056 261.215654 
" style="fill:none;stroke:#ff7f0e;stroke-width:1.5;"/>
    <path clip-path="url(#p56a15c8417)" d="M 187.119295 261.216 
L 196.307631 261.216 
" style="fill:none;stroke:#ff7f0e;stroke-width:1.5;"/>
    <path clip-path="url(#p56a15c8417)" d="M 248.374869 261.215769 
L 257.563205 261.215769 
" style="fill:none;stroke:#ff7f0e;stroke-width:1.5;"/>
    <path clip-path="url(#p56a15c8417)" d="M 309.630444 261.216 
L 318.81878 261.216 
" style="fill:none;stroke:#ff7f0e;stroke-width:1.5;"/>
    <path clip-path="url(#p56a15c8417)" d="M 370.886018 261.215654 
L 380.074355 261.215654 
" style="fill:none;stroke:#ff7f0e;stroke-width:1.5;"/>
   </g>
   <g id="LineCollection_9">
    <path clip-path="url(#p56a15c8417)" d="M 69.202313 261.215654 
L 69.202313 19.296 
" style="fill:none;stroke:#ff7f0e;stroke-width:1.5;"/>
    <path clip-path="url(#p56a15c8417)" d="M 130.457888 261.215654 
L 130.457888 19.296 
" style="fill:none;stroke:#ff7f0e;stroke-width:1.5;"/>
    <path clip-path="url(#p56a15c8417)" d="M 191.713463 261.216 
L 191.713463 19.296 
" style="fill:none;stroke:#ff7f0e;stroke-width:1.5;"/>
    <path clip-path="url(#p56a15c8417)" d="M 252.969037 261.215769 
L 252.969037 19.296 
" style="fill:none;stroke:#ff7f0e;stroke-width:1.5;"/>
    <path clip-path="url(#p56a15c8417)" d="M 314.224612 261.216 
L 314.224612 19.296 
" style="fill:none;stroke:#ff7f0e;stroke-width:1.5;"/>
    <path clip-path="url(#p56a15c8417)" d="M 375.480187 261.215654 
L 375.480187 19.296 
" style="fill:none;stroke:#ff7f0e;stroke-width:1.5;"/>
   </g>
   <g id="LineCollection_10">
    <path clip-path="url(#p56a15c8417)" d="M 64.608145 22.197666 
L 73.796482 22.197666 
" style="fill:none;stroke:#ff7f0e;stroke-width:1.5;"/>
    <path clip-path="url(#p56a15c8417)" d="M 125.86372 22.21339 
L 135.052056 22.21339 
" style="fill:none;stroke:#ff7f0e;stroke-width:1.5;"/>
    <path clip-path="url(#p56a15c8417)" d="M 187.119295 22.213447 
L 196.307631 22.213447 
" style="fill:none;stroke:#ff7f0e;stroke-width:1.5;"/>
    <path clip-path="url(#p56a15c8417)" d="M 248.374869 22.213447 
L 257.563205 22.213447 
" style="fill:none;stroke:#ff7f0e;stroke-width:1.5;"/>
    <path clip-path="url(#p56a15c8417)" d="M 309.630444 22.213447 
L 318.81878 22.213447 
" style="fill:none;stroke:#ff7f0e;stroke-width:1.5;"/>
    <path clip-path="url(#p56a15c8417)" d="M 370.886018 22.197666 
L 380.074355 22.197666 
" style="fill:none;stroke:#ff7f0e;stroke-width:1.5;"/>
   </g>
   <g id="patch_3">
    <path d="M 43.78125 273.312 
L 43.78125 7.2 
" style="fill:none;stroke:#000000;stroke-linecap:square;stroke-linejoin:miter;stroke-width:0.8;"/>
   </g>
   <g id="patch_4">
    <path d="M 400.90125 273.312 
L 400.90125 7.2 
" style="fill:none;stroke:#000000;stroke-linecap:square;stroke-linejoin:miter;stroke-width:0.8;"/>
   </g>
   <g id="patch_5">
    <path d="M 43.78125 273.312 
L 400.90125 273.312 
" style="fill:none;stroke:#000000;stroke-linecap:square;stroke-linejoin:miter;stroke-width:0.8;"/>
   </g>
   <g id="patch_6">
    <path d="M 43.78125 7.2 
L 400.90125 7.2 
" style="fill:none;stroke:#000000;stroke-linecap:square;stroke-linejoin:miter;stroke-width:0.8;"/>
   </g>
   <g id="legend_1">
    <g id="patch_7">
     <path d="M 50.78125 44.55625 
L 116.378125 44.55625 
Q 118.378125 44.55625 118.378125 42.55625 
L 118.378125 14.2 
Q 118.378125 12.2 116.378125 12.2 
L 50.78125 12.2 
Q 48.78125 12.2 48.78125 14.2 
L 48.78125 42.55625 
Q 48.78125 44.55625 50.78125 44.55625 
z
" style="fill:#ffffff;opacity:0.8;stroke:#cccccc;stroke-linejoin:miter;"/>
    </g>
    <g id="patch_8">
     <path d="M 52.78125 23.798437 
L 72.78125 23.798437 
L 72.78125 16.798437 
L 52.78125 16.798437 
z
" style="fill:#2cbdfe;stroke:#2cbdfe;stroke-linejoin:miter;"/>
    </g>
    <g id="text_15">
     <!-- Car -->
     <g transform="translate(80.78125 23.798437)scale(0.1 -0.1)">
      <defs>
       <path d="M 64.40625 67.28125 
L 64.40625 56.890625 
Q 59.421875 61.53125 53.78125 63.8125 
Q 48.140625 66.109375 41.796875 66.109375 
Q 29.296875 66.109375 22.65625 58.46875 
Q 16.015625 50.828125 16.015625 36.375 
Q 16.015625 21.96875 22.65625 14.328125 
Q 29.296875 6.6875 41.796875 6.6875 
Q 48.140625 6.6875 53.78125 8.984375 
Q 59.421875 11.28125 64.40625 15.921875 
L 64.40625 5.609375 
Q 59.234375 2.09375 53.4375 0.328125 
Q 47.65625 -1.421875 41.21875 -1.421875 
Q 24.65625 -1.421875 15.125 8.703125 
Q 5.609375 18.84375 5.609375 36.375 
Q 5.609375 53.953125 15.125 64.078125 
Q 24.65625 74.21875 41.21875 74.21875 
Q 47.75 74.21875 53.53125 72.484375 
Q 59.328125 70.75 64.40625 67.28125 
z
" id="DejaVuSans-67"/>
      </defs>
      <use xlink:href="#DejaVuSans-67"/>
      <use x="69.824219" xlink:href="#DejaVuSans-97"/>
      <use x="131.103516" xlink:href="#DejaVuSans-114"/>
     </g>
    </g>
    <g id="patch_9">
     <path d="M 52.78125 38.476562 
L 72.78125 38.476562 
L 72.78125 31.476562 
L 52.78125 31.476562 
z
" style="fill:#f5b14c;fill-opacity:0.85;stroke:#f5b14c;stroke-linejoin:miter;stroke-opacity:0.85;"/>
    </g>
    <g id="text_16">
     <!-- Person -->
     <g transform="translate(80.78125 38.476562)scale(0.1 -0.1)">
      <defs>
       <path d="M 19.671875 64.796875 
L 19.671875 37.40625 
L 32.078125 37.40625 
Q 38.96875 37.40625 42.71875 40.96875 
Q 46.484375 44.53125 46.484375 51.125 
Q 46.484375 57.671875 42.71875 61.234375 
Q 38.96875 64.796875 32.078125 64.796875 
z
M 9.8125 72.90625 
L 32.078125 72.90625 
Q 44.34375 72.90625 50.609375 67.359375 
Q 56.890625 61.8125 56.890625 51.125 
Q 56.890625 40.328125 50.609375 34.8125 
Q 44.34375 29.296875 32.078125 29.296875 
L 19.671875 29.296875 
L 19.671875 0 
L 9.8125 0 
z
" id="DejaVuSans-80"/>
      </defs>
      <use xlink:href="#DejaVuSans-80"/>
      <use x="56.677734" xlink:href="#DejaVuSans-101"/>
      <use x="118.201172" xlink:href="#DejaVuSans-114"/>
      <use x="159.314453" xlink:href="#DejaVuSans-115"/>
      <use x="211.414062" xlink:href="#DejaVuSans-111"/>
      <use x="272.595703" xlink:href="#DejaVuSans-110"/>
     </g>
    </g>
   </g>
  </g>
 </g>
 <defs>
  <clipPath id="p56a15c8417">
   <rect height="266.112" width="357.12" x="43.78125" y="7.2"/>
  </clipPath>
 </defs>
</svg>
