<?xml version="1.0" encoding="utf-8" standalone="no"?>
<!DOCTYPE svg PUBLIC "-//W3C//DTD SVG 1.1//EN"
  "http://www.w3.org/Graphics/SVG/1.1/DTD/svg11.dtd">
<!-- Created with matplotlib (https://matplotlib.org/) -->
<svg height="310.86825pt" version="1.1" viewBox="0 0 408.847374 310.86825" width="408.847374pt" xmlns="http://www.w3.org/2000/svg" xmlns:xlink="http://www.w3.org/1999/xlink">
 <metadata>
  <rdf:RDF xmlns:cc="http://creativecommons.org/ns#" xmlns:dc="http://purl.org/dc/elements/1.1/" xmlns:rdf="http://www.w3.org/1999/02/22-rdf-syntax-ns#">
   <cc:Work>
    <dc:type rdf:resource="http://purl.org/dc/dcmitype/StillImage"/>
    <dc:date>2020-10-27T00:38:59.138487</dc:date>
    <dc:format>image/svg+xml</dc:format>
    <dc:creator>
     <cc:Agent>
      <dc:title>Matplotlib v3.3.2, https://matplotlib.org/</dc:title>
     </cc:Agent>
    </dc:creator>
   </cc:Work>
  </rdf:RDF>
 </metadata>
 <defs>
  <style type="text/css">*{stroke-linecap:butt;stroke-linejoin:round;}</style>
 </defs>
 <g id="figure_1">
  <g id="patch_1">
   <path d="M 0 310.86825 
L 408.847374 310.86825 
L 408.847374 0 
L 0 0 
z
" style="fill:#ffffff;"/>
  </g>
  <g id="axes_1">
   <g id="patch_2">
    <path d="M 43.78125 273.312 
L 400.90125 273.312 
L 400.90125 7.2 
L 43.78125 7.2 
z
" style="fill:#ffffff;"/>
   </g>
   <g id="PolyCollection_1">
    <path clip-path="url(#p125f43c884)" d="M 70.197817 260.935963 
L 68.20681 260.935963 
L 67.702468 248.336196 
L 67.588052 235.736428 
L 67.613106 223.136661 
L 67.568989 210.536893 
L 67.292752 197.937125 
L 66.846931 185.337358 
L 66.482105 172.73759 
L 66.238963 160.137822 
L 66.221096 147.538055 
L 66.405422 134.938287 
L 66.310004 122.33852 
L 65.670875 109.738752 
L 64.526127 97.138984 
L 62.916143 84.539217 
L 61.178627 71.939449 
L 60.170153 59.339682 
L 60.013977 46.739914 
L 60.880932 34.140146 
L 63.972586 21.540379 
L 74.432041 21.540379 
L 74.432041 21.540379 
L 77.523695 34.140146 
L 78.39065 46.739914 
L 78.234474 59.339682 
L 77.226 71.939449 
L 75.488484 84.539217 
L 73.878499 97.138984 
L 72.733752 109.738752 
L 72.094623 122.33852 
L 71.999205 134.938287 
L 72.183531 147.538055 
L 72.165664 160.137822 
L 71.922522 172.73759 
L 71.557696 185.337358 
L 71.111874 197.937125 
L 70.835638 210.536893 
L 70.791521 223.136661 
L 70.816575 235.736428 
L 70.702159 248.336196 
L 70.197817 260.935963 
z
" style="fill:#2cbdfe;"/>
   </g>
   <g id="PolyCollection_2">
    <path clip-path="url(#p125f43c884)" d="M 131.373947 260.789764 
L 129.541829 260.789764 
L 129.009019 248.203881 
L 128.863608 235.617999 
L 128.942364 223.032116 
L 128.942068 210.446234 
L 128.626117 197.860351 
L 128.123208 185.274468 
L 127.759606 172.688586 
L 127.510106 160.102703 
L 127.437468 147.516821 
L 127.667888 134.930938 
L 127.700923 122.345055 
L 127.070744 109.759173 
L 125.797272 97.17329 
L 124.112114 84.587408 
L 122.505648 72.001525 
L 121.543228 59.415642 
L 121.269552 46.82976 
L 122.065787 34.243877 
L 125.166913 21.657994 
L 135.748863 21.657994 
L 135.748863 21.657994 
L 138.849989 34.243877 
L 139.646224 46.82976 
L 139.372548 59.415642 
L 138.410128 72.001525 
L 136.803662 84.587408 
L 135.118504 97.17329 
L 133.845032 109.759173 
L 133.214853 122.345055 
L 133.247888 134.930938 
L 133.478308 147.516821 
L 133.40567 160.102703 
L 133.15617 172.688586 
L 132.792569 185.274468 
L 132.289659 197.860351 
L 131.973708 210.446234 
L 131.973412 223.032116 
L 132.052168 235.617999 
L 131.906757 248.203881 
L 131.373947 260.789764 
z
" style="fill:#2cbdfe;"/>
   </g>
   <g id="PolyCollection_3">
    <path clip-path="url(#p125f43c884)" d="M 192.65488 260.888785 
L 190.772045 260.888785 
L 190.266417 248.284798 
L 190.069518 235.68081 
L 190.028072 223.076822 
L 190.038401 210.472835 
L 189.845329 197.868847 
L 189.381145 185.26486 
L 188.997998 172.660872 
L 188.841682 160.056885 
L 188.96987 147.452897 
L 189.20465 134.84891 
L 189.072426 122.244922 
L 188.375067 109.640935 
L 187.201043 97.036947 
L 185.778561 84.43296 
L 184.326598 71.828972 
L 183.086283 59.224984 
L 182.525127 46.620997 
L 183.451944 34.017009 
L 186.610246 21.413022 
L 196.81668 21.413022 
L 196.81668 21.413022 
L 199.974981 34.017009 
L 200.901799 46.620997 
L 200.340643 59.224984 
L 199.100327 71.828972 
L 197.648365 84.43296 
L 196.225882 97.036947 
L 195.051859 109.640935 
L 194.354499 122.244922 
L 194.222275 134.84891 
L 194.457056 147.452897 
L 194.585243 160.056885 
L 194.428927 172.660872 
L 194.04578 185.26486 
L 193.581597 197.868847 
L 193.388524 210.472835 
L 193.398854 223.076822 
L 193.357408 235.68081 
L 193.160508 248.284798 
L 192.65488 260.888785 
z
" style="fill:#2cbdfe;"/>
   </g>
   <g id="PolyCollection_4">
    <path clip-path="url(#p125f43c884)" d="M 253.880882 260.82166 
L 252.057192 260.82166 
L 251.579504 248.22054 
L 251.467407 235.619419 
L 251.462045 223.018299 
L 251.338396 210.417178 
L 251.154382 197.816058 
L 250.963704 185.214937 
L 250.750778 172.613817 
L 250.506546 160.012696 
L 250.256475 147.411576 
L 250.16652 134.810455 
L 250.10037 122.209335 
L 249.686863 109.608214 
L 248.990866 97.007094 
L 248.002533 84.405973 
L 246.49324 71.804853 
L 244.85654 59.203732 
L 243.780701 46.602612 
L 244.560042 34.001491 
L 247.925916 21.400371 
L 258.012158 21.400371 
L 258.012158 21.400371 
L 261.378032 34.001491 
L 262.157373 46.602612 
L 261.081535 59.203732 
L 259.444834 71.804853 
L 257.935542 84.405973 
L 256.947208 97.007094 
L 256.251211 109.608214 
L 255.837704 122.209335 
L 255.771555 134.810455 
L 255.6816 147.411576 
L 255.431529 160.012696 
L 255.187297 172.613817 
L 254.97437 185.214937 
L 254.783692 197.816058 
L 254.599678 210.417178 
L 254.47603 223.018299 
L 254.470667 235.619419 
L 254.358571 248.22054 
L 253.880882 260.82166 
z
" style="fill:#2cbdfe;"/>
   </g>
   <g id="PolyCollection_5">
    <path clip-path="url(#p125f43c884)" d="M 315.329943 261.181493 
L 313.11928 261.181493 
L 312.413247 248.62073 
L 312.022373 236.059967 
L 311.916978 223.499204 
L 312.012764 210.938442 
L 312.032932 198.377679 
L 311.751763 185.816916 
L 311.361843 173.256153 
L 311.286818 160.69539 
L 311.488235 148.134627 
L 311.457493 135.573864 
L 311.048734 123.013101 
L 310.393543 110.452338 
L 309.578328 97.891575 
L 308.607746 85.330812 
L 307.179154 72.770049 
L 305.59285 60.209286 
L 305.036276 47.648523 
L 306.127861 35.08776 
L 309.103037 22.526997 
L 319.346187 22.526997 
L 319.346187 22.526997 
L 322.321363 35.08776 
L 323.412948 47.648523 
L 322.856374 60.209286 
L 321.27007 72.770049 
L 319.841478 85.330812 
L 318.870895 97.891575 
L 318.05568 110.452338 
L 317.40049 123.013101 
L 316.991731 135.573864 
L 316.960989 148.134627 
L 317.162406 160.69539 
L 317.087381 173.256153 
L 316.697461 185.816916 
L 316.416292 198.377679 
L 316.43646 210.938442 
L 316.532245 223.499204 
L 316.426851 236.059967 
L 316.035977 248.62073 
L 315.329943 261.181493 
z
" style="fill:#2cbdfe;"/>
   </g>
   <g id="PolyCollection_6">
    <path clip-path="url(#p125f43c884)" d="M 378.011103 261.216 
L 372.94927 261.216 
L 371.424146 248.736241 
L 370.82122 236.256482 
L 370.531108 223.776723 
L 369.826475 211.296964 
L 369.055962 198.817205 
L 368.723637 186.337446 
L 368.894124 173.857687 
L 369.208172 161.377928 
L 369.464069 148.89817 
L 369.681191 136.418411 
L 369.869516 123.938652 
L 369.94788 111.458893 
L 369.603242 98.979134 
L 368.430307 86.499375 
L 366.874575 74.019616 
L 366.29185 61.539857 
L 367.066329 49.060098 
L 368.62246 36.580339 
L 371.110225 24.10058 
L 379.850148 24.10058 
L 379.850148 24.10058 
L 382.337913 36.580339 
L 383.894044 49.060098 
L 384.668523 61.539857 
L 384.085798 74.019616 
L 382.530066 86.499375 
L 381.357131 98.979134 
L 381.012493 111.458893 
L 381.090858 123.938652 
L 381.279182 136.418411 
L 381.496304 148.89817 
L 381.752201 161.377928 
L 382.066249 173.857687 
L 382.236736 186.337446 
L 381.904411 198.817205 
L 381.133898 211.296964 
L 380.429265 223.776723 
L 380.139153 236.256482 
L 379.536227 248.736241 
L 378.011103 261.216 
z
" style="fill:#2cbdfe;"/>
   </g>
   <g id="PolyCollection_7">
    <path clip-path="url(#p125f43c884)" d="M 69.977852 260.139761 
L 68.426775 260.139761 
L 68.139888 247.467799 
L 68.031712 234.795837 
L 68.090355 222.123875 
L 68.19872 209.451913 
L 68.259923 196.779951 
L 68.268446 184.107989 
L 68.271197 171.436028 
L 68.301753 158.764066 
L 68.361615 146.092104 
L 68.431079 133.420142 
L 68.474918 120.74818 
L 68.434213 108.076218 
L 68.215607 95.404256 
L 67.663844 82.732294 
L 66.493952 70.060332 
L 64.404748 57.38837 
L 61.734173 44.716408 
L 60.013977 32.044446 
L 60.815758 19.372484 
L 77.588869 19.372484 
L 77.588869 19.372484 
L 78.39065 32.044446 
L 76.670453 44.716408 
L 73.999879 57.38837 
L 71.910674 70.060332 
L 70.740783 82.732294 
L 70.18902 95.404256 
L 69.970414 108.076218 
L 69.929709 120.74818 
L 69.973548 133.420142 
L 70.043012 146.092104 
L 70.102873 158.764066 
L 70.13343 171.436028 
L 70.136181 184.107989 
L 70.144704 196.779951 
L 70.205907 209.451913 
L 70.314272 222.123875 
L 70.372915 234.795837 
L 70.264739 247.467799 
L 69.977852 260.139761 
z
" style="fill:#f5b14c;fill-opacity:0.85;"/>
   </g>
   <g id="PolyCollection_8">
    <path clip-path="url(#p125f43c884)" d="M 131.137336 261.131374 
L 129.77844 261.131374 
L 129.553653 248.408612 
L 129.462878 235.685851 
L 129.459105 222.963089 
L 129.480629 210.240327 
L 129.515428 197.517565 
L 129.564606 184.794804 
L 129.603775 172.072042 
L 129.614127 159.34928 
L 129.620135 146.626518 
L 129.649291 133.903757 
L 129.685389 121.180995 
L 129.674791 108.458233 
L 129.52459 95.735471 
L 129.056778 83.01271 
L 127.962154 70.289948 
L 125.911046 57.567186 
L 123.165395 44.844424 
L 121.269552 32.121663 
L 121.983742 19.398901 
L 138.932034 19.398901 
L 138.932034 19.398901 
L 139.646224 32.121663 
L 137.750382 44.844424 
L 135.00473 57.567186 
L 132.953622 70.289948 
L 131.858998 83.01271 
L 131.391186 95.735471 
L 131.240985 108.458233 
L 131.230387 121.180995 
L 131.266485 133.903757 
L 131.295641 146.626518 
L 131.301649 159.34928 
L 131.312001 172.072042 
L 131.35117 184.794804 
L 131.400349 197.517565 
L 131.435147 210.240327 
L 131.456671 222.963089 
L 131.452898 235.685851 
L 131.362123 248.408612 
L 131.137336 261.131374 
z
" style="fill:#f5b14c;fill-opacity:0.85;"/>
   </g>
   <g id="PolyCollection_9">
    <path clip-path="url(#p125f43c884)" d="M 192.443864 260.413967 
L 190.983062 260.413967 
L 190.707188 247.726252 
L 190.595067 235.038536 
L 190.612333 222.35082 
L 190.674191 209.663104 
L 190.749774 196.975389 
L 190.827985 184.287673 
L 190.872162 171.599957 
L 190.861908 158.912241 
L 190.841613 146.224526 
L 190.872153 133.53681 
L 190.939215 120.849094 
L 190.945943 108.161378 
L 190.774763 95.473662 
L 190.283766 82.785947 
L 189.193659 70.098231 
L 187.153233 57.410515 
L 184.416563 44.722799 
L 182.525127 32.035084 
L 183.20162 19.347368 
L 200.225305 19.347368 
L 200.225305 19.347368 
L 200.901799 32.035084 
L 199.010363 44.722799 
L 196.273692 57.410515 
L 194.233267 70.098231 
L 193.14316 82.785947 
L 192.652163 95.473662 
L 192.480982 108.161378 
L 192.48771 120.849094 
L 192.554773 133.53681 
L 192.585312 146.224526 
L 192.565017 158.912241 
L 192.554763 171.599957 
L 192.59894 184.287673 
L 192.677151 196.975389 
L 192.752734 209.663104 
L 192.814592 222.35082 
L 192.831859 235.038536 
L 192.719737 247.726252 
L 192.443864 260.413967 
z
" style="fill:#f5b14c;fill-opacity:0.85;"/>
   </g>
   <g id="PolyCollection_10">
    <path clip-path="url(#p125f43c884)" d="M 253.562063 260.727272 
L 252.376011 260.727272 
L 252.116385 248.026926 
L 251.955229 235.32658 
L 251.904661 222.626234 
L 251.952622 209.925888 
L 252.070685 197.225541 
L 252.191176 184.525195 
L 252.245888 171.824849 
L 252.231027 159.124503 
L 252.200235 146.424157 
L 252.198262 133.72381 
L 252.223942 121.023464 
L 252.23444 108.323118 
L 252.134368 95.622772 
L 251.710679 82.922426 
L 250.604521 70.222079 
L 248.492717 57.521733 
L 245.694005 44.821387 
L 243.780701 32.121041 
L 244.508185 19.420695 
L 261.42989 19.420695 
L 261.42989 19.420695 
L 262.157373 32.121041 
L 260.24407 44.821387 
L 257.445358 57.521733 
L 255.333554 70.222079 
L 254.227395 82.922426 
L 253.803707 95.622772 
L 253.703635 108.323118 
L 253.714132 121.023464 
L 253.739812 133.72381 
L 253.73784 146.424157 
L 253.707048 159.124503 
L 253.692187 171.824849 
L 253.746898 184.525195 
L 253.867389 197.225541 
L 253.985453 209.925888 
L 254.033414 222.626234 
L 253.982846 235.32658 
L 253.82169 248.026926 
L 253.562063 260.727272 
z
" style="fill:#f5b14c;fill-opacity:0.85;"/>
   </g>
   <g id="PolyCollection_11">
    <path clip-path="url(#p125f43c884)" d="M 315.068684 260.835364 
L 313.38054 260.835364 
L 313.138036 248.125772 
L 313.091656 235.416181 
L 313.175255 222.706589 
L 313.278257 209.996998 
L 313.341255 197.287406 
L 313.368281 184.577815 
L 313.401114 171.868223 
L 313.461715 159.158632 
L 313.522345 146.449041 
L 313.538441 133.739449 
L 313.470859 121.029858 
L 313.29016 108.320266 
L 312.986835 95.610675 
L 312.500071 82.901083 
L 311.554617 70.191492 
L 309.70509 57.4819 
L 307.044898 44.772309 
L 305.036276 32.062717 
L 305.527021 19.353126 
L 322.922203 19.353126 
L 322.922203 19.353126 
L 323.412948 32.062717 
L 321.404326 44.772309 
L 318.744134 57.4819 
L 316.894607 70.191492 
L 315.949153 82.901083 
L 315.462389 95.610675 
L 315.159063 108.320266 
L 314.978365 121.029858 
L 314.910783 133.739449 
L 314.926879 146.449041 
L 314.987509 159.158632 
L 315.04811 171.868223 
L 315.080942 184.577815 
L 315.107969 197.287406 
L 315.170967 209.996998 
L 315.273969 222.706589 
L 315.357568 235.416181 
L 315.311188 248.125772 
L 315.068684 260.835364 
z
" style="fill:#f5b14c;fill-opacity:0.85;"/>
   </g>
   <g id="PolyCollection_12">
    <path clip-path="url(#p125f43c884)" d="M 377.412321 261.116845 
L 373.548052 261.116845 
L 372.992693 248.389432 
L 372.797646 235.662019 
L 372.910044 222.934606 
L 373.15195 210.207193 
L 373.381924 197.47978 
L 373.535093 184.752368 
L 373.580626 172.024955 
L 373.50472 159.297542 
L 373.343591 146.570129 
L 373.175978 133.842716 
L 373.029748 121.115303 
L 372.816752 108.38789 
L 372.38546 95.660477 
L 371.59038 82.933064 
L 370.305354 70.205652 
L 368.557788 57.478239 
L 366.870067 44.750826 
L 366.29185 32.023413 
L 367.563902 19.296 
L 383.396471 19.296 
L 383.396471 19.296 
L 384.668523 32.023413 
L 384.090306 44.750826 
L 382.402585 57.478239 
L 380.65502 70.205652 
L 379.369993 82.933064 
L 378.574913 95.660477 
L 378.143621 108.38789 
L 377.930625 121.115303 
L 377.784395 133.842716 
L 377.616782 146.570129 
L 377.455653 159.297542 
L 377.379747 172.024955 
L 377.42528 184.752368 
L 377.578449 197.47978 
L 377.808423 210.207193 
L 378.050329 222.934606 
L 378.162727 235.662019 
L 377.96768 248.389432 
L 377.412321 261.116845 
z
" style="fill:#f5b14c;fill-opacity:0.85;"/>
   </g>
   <g id="matplotlib.axis_1">
    <g id="xtick_1">
     <g id="line2d_1">
      <defs>
       <path d="M 0 0 
L 0 3.5 
" id="m4dea8510d2" style="stroke:#000000;stroke-width:0.8;"/>
      </defs>
      <g>
       <use style="stroke:#000000;stroke-width:0.8;" x="69.202313" xlink:href="#m4dea8510d2" y="273.312"/>
      </g>
     </g>
     <g id="text_1">
      <!-- (1200, 1200) -->
      <g transform="translate(36.672626 287.910437)scale(0.1 -0.1)">
       <defs>
        <path d="M 31 75.875 
Q 24.46875 64.65625 21.28125 53.65625 
Q 18.109375 42.671875 18.109375 31.390625 
Q 18.109375 20.125 21.3125 9.0625 
Q 24.515625 -2 31 -13.1875 
L 23.1875 -13.1875 
Q 15.875 -1.703125 12.234375 9.375 
Q 8.59375 20.453125 8.59375 31.390625 
Q 8.59375 42.28125 12.203125 53.3125 
Q 15.828125 64.359375 23.1875 75.875 
z
" id="DejaVuSans-40"/>
        <path d="M 12.40625 8.296875 
L 28.515625 8.296875 
L 28.515625 63.921875 
L 10.984375 60.40625 
L 10.984375 69.390625 
L 28.421875 72.90625 
L 38.28125 72.90625 
L 38.28125 8.296875 
L 54.390625 8.296875 
L 54.390625 0 
L 12.40625 0 
z
" id="DejaVuSans-49"/>
        <path d="M 19.1875 8.296875 
L 53.609375 8.296875 
L 53.609375 0 
L 7.328125 0 
L 7.328125 8.296875 
Q 12.9375 14.109375 22.625 23.890625 
Q 32.328125 33.6875 34.8125 36.53125 
Q 39.546875 41.84375 41.421875 45.53125 
Q 43.3125 49.21875 43.3125 52.78125 
Q 43.3125 58.59375 39.234375 62.25 
Q 35.15625 65.921875 28.609375 65.921875 
Q 23.96875 65.921875 18.8125 64.3125 
Q 13.671875 62.703125 7.8125 59.421875 
L 7.8125 69.390625 
Q 13.765625 71.78125 18.9375 73 
Q 24.125 74.21875 28.421875 74.21875 
Q 39.75 74.21875 46.484375 68.546875 
Q 53.21875 62.890625 53.21875 53.421875 
Q 53.21875 48.921875 51.53125 44.890625 
Q 49.859375 40.875 45.40625 35.40625 
Q 44.1875 33.984375 37.640625 27.21875 
Q 31.109375 20.453125 19.1875 8.296875 
z
" id="DejaVuSans-50"/>
        <path d="M 31.78125 66.40625 
Q 24.171875 66.40625 20.328125 58.90625 
Q 16.5 51.421875 16.5 36.375 
Q 16.5 21.390625 20.328125 13.890625 
Q 24.171875 6.390625 31.78125 6.390625 
Q 39.453125 6.390625 43.28125 13.890625 
Q 47.125 21.390625 47.125 36.375 
Q 47.125 51.421875 43.28125 58.90625 
Q 39.453125 66.40625 31.78125 66.40625 
z
M 31.78125 74.21875 
Q 44.046875 74.21875 50.515625 64.515625 
Q 56.984375 54.828125 56.984375 36.375 
Q 56.984375 17.96875 50.515625 8.265625 
Q 44.046875 -1.421875 31.78125 -1.421875 
Q 19.53125 -1.421875 13.0625 8.265625 
Q 6.59375 17.96875 6.59375 36.375 
Q 6.59375 54.828125 13.0625 64.515625 
Q 19.53125 74.21875 31.78125 74.21875 
z
" id="DejaVuSans-48"/>
        <path d="M 11.71875 12.40625 
L 22.015625 12.40625 
L 22.015625 4 
L 14.015625 -11.625 
L 7.71875 -11.625 
L 11.71875 4 
z
" id="DejaVuSans-44"/>
        <path id="DejaVuSans-32"/>
        <path d="M 8.015625 75.875 
L 15.828125 75.875 
Q 23.140625 64.359375 26.78125 53.3125 
Q 30.421875 42.28125 30.421875 31.390625 
Q 30.421875 20.453125 26.78125 9.375 
Q 23.140625 -1.703125 15.828125 -13.1875 
L 8.015625 -13.1875 
Q 14.5 -2 17.703125 9.0625 
Q 20.90625 20.125 20.90625 31.390625 
Q 20.90625 42.671875 17.703125 53.65625 
Q 14.5 64.65625 8.015625 75.875 
z
" id="DejaVuSans-41"/>
       </defs>
       <use xlink:href="#DejaVuSans-40"/>
       <use x="39.013672" xlink:href="#DejaVuSans-49"/>
       <use x="102.636719" xlink:href="#DejaVuSans-50"/>
       <use x="166.259766" xlink:href="#DejaVuSans-48"/>
       <use x="229.882812" xlink:href="#DejaVuSans-48"/>
       <use x="293.505859" xlink:href="#DejaVuSans-44"/>
       <use x="325.292969" xlink:href="#DejaVuSans-32"/>
       <use x="357.080078" xlink:href="#DejaVuSans-49"/>
       <use x="420.703125" xlink:href="#DejaVuSans-50"/>
       <use x="484.326172" xlink:href="#DejaVuSans-48"/>
       <use x="547.949219" xlink:href="#DejaVuSans-48"/>
       <use x="611.572266" xlink:href="#DejaVuSans-41"/>
      </g>
     </g>
    </g>
    <g id="xtick_2">
     <g id="line2d_2">
      <g>
       <use style="stroke:#000000;stroke-width:0.8;" x="130.457888" xlink:href="#m4dea8510d2" y="273.312"/>
      </g>
     </g>
     <g id="text_2">
      <!-- (1000, 1000) -->
      <g transform="translate(97.928201 287.910437)scale(0.1 -0.1)">
       <use xlink:href="#DejaVuSans-40"/>
       <use x="39.013672" xlink:href="#DejaVuSans-49"/>
       <use x="102.636719" xlink:href="#DejaVuSans-48"/>
       <use x="166.259766" xlink:href="#DejaVuSans-48"/>
       <use x="229.882812" xlink:href="#DejaVuSans-48"/>
       <use x="293.505859" xlink:href="#DejaVuSans-44"/>
       <use x="325.292969" xlink:href="#DejaVuSans-32"/>
       <use x="357.080078" xlink:href="#DejaVuSans-49"/>
       <use x="420.703125" xlink:href="#DejaVuSans-48"/>
       <use x="484.326172" xlink:href="#DejaVuSans-48"/>
       <use x="547.949219" xlink:href="#DejaVuSans-48"/>
       <use x="611.572266" xlink:href="#DejaVuSans-41"/>
      </g>
     </g>
    </g>
    <g id="xtick_3">
     <g id="line2d_3">
      <g>
       <use style="stroke:#000000;stroke-width:0.8;" x="191.713463" xlink:href="#m4dea8510d2" y="273.312"/>
      </g>
     </g>
     <g id="text_3">
      <!-- (800, 800) -->
      <g transform="translate(165.546275 287.910437)scale(0.1 -0.1)">
       <defs>
        <path d="M 31.78125 34.625 
Q 24.75 34.625 20.71875 30.859375 
Q 16.703125 27.09375 16.703125 20.515625 
Q 16.703125 13.921875 20.71875 10.15625 
Q 24.75 6.390625 31.78125 6.390625 
Q 38.8125 6.390625 42.859375 10.171875 
Q 46.921875 13.96875 46.921875 20.515625 
Q 46.921875 27.09375 42.890625 30.859375 
Q 38.875 34.625 31.78125 34.625 
z
M 21.921875 38.8125 
Q 15.578125 40.375 12.03125 44.71875 
Q 8.5 49.078125 8.5 55.328125 
Q 8.5 64.0625 14.71875 69.140625 
Q 20.953125 74.21875 31.78125 74.21875 
Q 42.671875 74.21875 48.875 69.140625 
Q 55.078125 64.0625 55.078125 55.328125 
Q 55.078125 49.078125 51.53125 44.71875 
Q 48 40.375 41.703125 38.8125 
Q 48.828125 37.15625 52.796875 32.3125 
Q 56.78125 27.484375 56.78125 20.515625 
Q 56.78125 9.90625 50.3125 4.234375 
Q 43.84375 -1.421875 31.78125 -1.421875 
Q 19.734375 -1.421875 13.25 4.234375 
Q 6.78125 9.90625 6.78125 20.515625 
Q 6.78125 27.484375 10.78125 32.3125 
Q 14.796875 37.15625 21.921875 38.8125 
z
M 18.3125 54.390625 
Q 18.3125 48.734375 21.84375 45.5625 
Q 25.390625 42.390625 31.78125 42.390625 
Q 38.140625 42.390625 41.71875 45.5625 
Q 45.3125 48.734375 45.3125 54.390625 
Q 45.3125 60.0625 41.71875 63.234375 
Q 38.140625 66.40625 31.78125 66.40625 
Q 25.390625 66.40625 21.84375 63.234375 
Q 18.3125 60.0625 18.3125 54.390625 
z
" id="DejaVuSans-56"/>
       </defs>
       <use xlink:href="#DejaVuSans-40"/>
       <use x="39.013672" xlink:href="#DejaVuSans-56"/>
       <use x="102.636719" xlink:href="#DejaVuSans-48"/>
       <use x="166.259766" xlink:href="#DejaVuSans-48"/>
       <use x="229.882812" xlink:href="#DejaVuSans-44"/>
       <use x="261.669922" xlink:href="#DejaVuSans-32"/>
       <use x="293.457031" xlink:href="#DejaVuSans-56"/>
       <use x="357.080078" xlink:href="#DejaVuSans-48"/>
       <use x="420.703125" xlink:href="#DejaVuSans-48"/>
       <use x="484.326172" xlink:href="#DejaVuSans-41"/>
      </g>
     </g>
    </g>
    <g id="xtick_4">
     <g id="line2d_4">
      <g>
       <use style="stroke:#000000;stroke-width:0.8;" x="252.969037" xlink:href="#m4dea8510d2" y="273.312"/>
      </g>
     </g>
     <g id="text_4">
      <!-- (600, 600) -->
      <g transform="translate(226.80185 287.910437)scale(0.1 -0.1)">
       <defs>
        <path d="M 33.015625 40.375 
Q 26.375 40.375 22.484375 35.828125 
Q 18.609375 31.296875 18.609375 23.390625 
Q 18.609375 15.53125 22.484375 10.953125 
Q 26.375 6.390625 33.015625 6.390625 
Q 39.65625 6.390625 43.53125 10.953125 
Q 47.40625 15.53125 47.40625 23.390625 
Q 47.40625 31.296875 43.53125 35.828125 
Q 39.65625 40.375 33.015625 40.375 
z
M 52.59375 71.296875 
L 52.59375 62.3125 
Q 48.875 64.0625 45.09375 64.984375 
Q 41.3125 65.921875 37.59375 65.921875 
Q 27.828125 65.921875 22.671875 59.328125 
Q 17.53125 52.734375 16.796875 39.40625 
Q 19.671875 43.65625 24.015625 45.921875 
Q 28.375 48.1875 33.59375 48.1875 
Q 44.578125 48.1875 50.953125 41.515625 
Q 57.328125 34.859375 57.328125 23.390625 
Q 57.328125 12.15625 50.6875 5.359375 
Q 44.046875 -1.421875 33.015625 -1.421875 
Q 20.359375 -1.421875 13.671875 8.265625 
Q 6.984375 17.96875 6.984375 36.375 
Q 6.984375 53.65625 15.1875 63.9375 
Q 23.390625 74.21875 37.203125 74.21875 
Q 40.921875 74.21875 44.703125 73.484375 
Q 48.484375 72.75 52.59375 71.296875 
z
" id="DejaVuSans-54"/>
       </defs>
       <use xlink:href="#DejaVuSans-40"/>
       <use x="39.013672" xlink:href="#DejaVuSans-54"/>
       <use x="102.636719" xlink:href="#DejaVuSans-48"/>
       <use x="166.259766" xlink:href="#DejaVuSans-48"/>
       <use x="229.882812" xlink:href="#DejaVuSans-44"/>
       <use x="261.669922" xlink:href="#DejaVuSans-32"/>
       <use x="293.457031" xlink:href="#DejaVuSans-54"/>
       <use x="357.080078" xlink:href="#DejaVuSans-48"/>
       <use x="420.703125" xlink:href="#DejaVuSans-48"/>
       <use x="484.326172" xlink:href="#DejaVuSans-41"/>
      </g>
     </g>
    </g>
    <g id="xtick_5">
     <g id="line2d_5">
      <g>
       <use style="stroke:#000000;stroke-width:0.8;" x="314.224612" xlink:href="#m4dea8510d2" y="273.312"/>
      </g>
     </g>
     <g id="text_5">
      <!-- (400, 400) -->
      <g transform="translate(288.057424 287.910437)scale(0.1 -0.1)">
       <defs>
        <path d="M 37.796875 64.3125 
L 12.890625 25.390625 
L 37.796875 25.390625 
z
M 35.203125 72.90625 
L 47.609375 72.90625 
L 47.609375 25.390625 
L 58.015625 25.390625 
L 58.015625 17.1875 
L 47.609375 17.1875 
L 47.609375 0 
L 37.796875 0 
L 37.796875 17.1875 
L 4.890625 17.1875 
L 4.890625 26.703125 
z
" id="DejaVuSans-52"/>
       </defs>
       <use xlink:href="#DejaVuSans-40"/>
       <use x="39.013672" xlink:href="#DejaVuSans-52"/>
       <use x="102.636719" xlink:href="#DejaVuSans-48"/>
       <use x="166.259766" xlink:href="#DejaVuSans-48"/>
       <use x="229.882812" xlink:href="#DejaVuSans-44"/>
       <use x="261.669922" xlink:href="#DejaVuSans-32"/>
       <use x="293.457031" xlink:href="#DejaVuSans-52"/>
       <use x="357.080078" xlink:href="#DejaVuSans-48"/>
       <use x="420.703125" xlink:href="#DejaVuSans-48"/>
       <use x="484.326172" xlink:href="#DejaVuSans-41"/>
      </g>
     </g>
    </g>
    <g id="xtick_6">
     <g id="line2d_6">
      <g>
       <use style="stroke:#000000;stroke-width:0.8;" x="375.480187" xlink:href="#m4dea8510d2" y="273.312"/>
      </g>
     </g>
     <g id="text_6">
      <!-- (200, 200) -->
      <g transform="translate(349.312999 287.910437)scale(0.1 -0.1)">
       <use xlink:href="#DejaVuSans-40"/>
       <use x="39.013672" xlink:href="#DejaVuSans-50"/>
       <use x="102.636719" xlink:href="#DejaVuSans-48"/>
       <use x="166.259766" xlink:href="#DejaVuSans-48"/>
       <use x="229.882812" xlink:href="#DejaVuSans-44"/>
       <use x="261.669922" xlink:href="#DejaVuSans-32"/>
       <use x="293.457031" xlink:href="#DejaVuSans-50"/>
       <use x="357.080078" xlink:href="#DejaVuSans-48"/>
       <use x="420.703125" xlink:href="#DejaVuSans-48"/>
       <use x="484.326172" xlink:href="#DejaVuSans-41"/>
      </g>
     </g>
    </g>
    <g id="text_7">
     <!-- Resolution -->
     <g transform="translate(196.21625 301.588562)scale(0.1 -0.1)">
      <defs>
       <path d="M 44.390625 34.1875 
Q 47.5625 33.109375 50.5625 29.59375 
Q 53.5625 26.078125 56.59375 19.921875 
L 66.609375 0 
L 56 0 
L 46.6875 18.703125 
Q 43.0625 26.03125 39.671875 28.421875 
Q 36.28125 30.8125 30.421875 30.8125 
L 19.671875 30.8125 
L 19.671875 0 
L 9.8125 0 
L 9.8125 72.90625 
L 32.078125 72.90625 
Q 44.578125 72.90625 50.734375 67.671875 
Q 56.890625 62.453125 56.890625 51.90625 
Q 56.890625 45.015625 53.6875 40.46875 
Q 50.484375 35.9375 44.390625 34.1875 
z
M 19.671875 64.796875 
L 19.671875 38.921875 
L 32.078125 38.921875 
Q 39.203125 38.921875 42.84375 42.21875 
Q 46.484375 45.515625 46.484375 51.90625 
Q 46.484375 58.296875 42.84375 61.546875 
Q 39.203125 64.796875 32.078125 64.796875 
z
" id="DejaVuSans-82"/>
       <path d="M 56.203125 29.59375 
L 56.203125 25.203125 
L 14.890625 25.203125 
Q 15.484375 15.921875 20.484375 11.0625 
Q 25.484375 6.203125 34.421875 6.203125 
Q 39.59375 6.203125 44.453125 7.46875 
Q 49.3125 8.734375 54.109375 11.28125 
L 54.109375 2.78125 
Q 49.265625 0.734375 44.1875 -0.34375 
Q 39.109375 -1.421875 33.890625 -1.421875 
Q 20.796875 -1.421875 13.15625 6.1875 
Q 5.515625 13.8125 5.515625 26.8125 
Q 5.515625 40.234375 12.765625 48.109375 
Q 20.015625 56 32.328125 56 
Q 43.359375 56 49.78125 48.890625 
Q 56.203125 41.796875 56.203125 29.59375 
z
M 47.21875 32.234375 
Q 47.125 39.59375 43.09375 43.984375 
Q 39.0625 48.390625 32.421875 48.390625 
Q 24.90625 48.390625 20.390625 44.140625 
Q 15.875 39.890625 15.1875 32.171875 
z
" id="DejaVuSans-101"/>
       <path d="M 44.28125 53.078125 
L 44.28125 44.578125 
Q 40.484375 46.53125 36.375 47.5 
Q 32.28125 48.484375 27.875 48.484375 
Q 21.1875 48.484375 17.84375 46.4375 
Q 14.5 44.390625 14.5 40.28125 
Q 14.5 37.15625 16.890625 35.375 
Q 19.28125 33.59375 26.515625 31.984375 
L 29.59375 31.296875 
Q 39.15625 29.25 43.1875 25.515625 
Q 47.21875 21.78125 47.21875 15.09375 
Q 47.21875 7.46875 41.1875 3.015625 
Q 35.15625 -1.421875 24.609375 -1.421875 
Q 20.21875 -1.421875 15.453125 -0.5625 
Q 10.6875 0.296875 5.421875 2 
L 5.421875 11.28125 
Q 10.40625 8.6875 15.234375 7.390625 
Q 20.0625 6.109375 24.8125 6.109375 
Q 31.15625 6.109375 34.5625 8.28125 
Q 37.984375 10.453125 37.984375 14.40625 
Q 37.984375 18.0625 35.515625 20.015625 
Q 33.0625 21.96875 24.703125 23.78125 
L 21.578125 24.515625 
Q 13.234375 26.265625 9.515625 29.90625 
Q 5.8125 33.546875 5.8125 39.890625 
Q 5.8125 47.609375 11.28125 51.796875 
Q 16.75 56 26.8125 56 
Q 31.78125 56 36.171875 55.265625 
Q 40.578125 54.546875 44.28125 53.078125 
z
" id="DejaVuSans-115"/>
       <path d="M 30.609375 48.390625 
Q 23.390625 48.390625 19.1875 42.75 
Q 14.984375 37.109375 14.984375 27.296875 
Q 14.984375 17.484375 19.15625 11.84375 
Q 23.34375 6.203125 30.609375 6.203125 
Q 37.796875 6.203125 41.984375 11.859375 
Q 46.1875 17.53125 46.1875 27.296875 
Q 46.1875 37.015625 41.984375 42.703125 
Q 37.796875 48.390625 30.609375 48.390625 
z
M 30.609375 56 
Q 42.328125 56 49.015625 48.375 
Q 55.71875 40.765625 55.71875 27.296875 
Q 55.71875 13.875 49.015625 6.21875 
Q 42.328125 -1.421875 30.609375 -1.421875 
Q 18.84375 -1.421875 12.171875 6.21875 
Q 5.515625 13.875 5.515625 27.296875 
Q 5.515625 40.765625 12.171875 48.375 
Q 18.84375 56 30.609375 56 
z
" id="DejaVuSans-111"/>
       <path d="M 9.421875 75.984375 
L 18.40625 75.984375 
L 18.40625 0 
L 9.421875 0 
z
" id="DejaVuSans-108"/>
       <path d="M 8.5 21.578125 
L 8.5 54.6875 
L 17.484375 54.6875 
L 17.484375 21.921875 
Q 17.484375 14.15625 20.5 10.265625 
Q 23.53125 6.390625 29.59375 6.390625 
Q 36.859375 6.390625 41.078125 11.03125 
Q 45.3125 15.671875 45.3125 23.6875 
L 45.3125 54.6875 
L 54.296875 54.6875 
L 54.296875 0 
L 45.3125 0 
L 45.3125 8.40625 
Q 42.046875 3.421875 37.71875 1 
Q 33.40625 -1.421875 27.6875 -1.421875 
Q 18.265625 -1.421875 13.375 4.4375 
Q 8.5 10.296875 8.5 21.578125 
z
M 31.109375 56 
z
" id="DejaVuSans-117"/>
       <path d="M 18.3125 70.21875 
L 18.3125 54.6875 
L 36.8125 54.6875 
L 36.8125 47.703125 
L 18.3125 47.703125 
L 18.3125 18.015625 
Q 18.3125 11.328125 20.140625 9.421875 
Q 21.96875 7.515625 27.59375 7.515625 
L 36.8125 7.515625 
L 36.8125 0 
L 27.59375 0 
Q 17.1875 0 13.234375 3.875 
Q 9.28125 7.765625 9.28125 18.015625 
L 9.28125 47.703125 
L 2.6875 47.703125 
L 2.6875 54.6875 
L 9.28125 54.6875 
L 9.28125 70.21875 
z
" id="DejaVuSans-116"/>
       <path d="M 9.421875 54.6875 
L 18.40625 54.6875 
L 18.40625 0 
L 9.421875 0 
z
M 9.421875 75.984375 
L 18.40625 75.984375 
L 18.40625 64.59375 
L 9.421875 64.59375 
z
" id="DejaVuSans-105"/>
       <path d="M 54.890625 33.015625 
L 54.890625 0 
L 45.90625 0 
L 45.90625 32.71875 
Q 45.90625 40.484375 42.875 44.328125 
Q 39.84375 48.1875 33.796875 48.1875 
Q 26.515625 48.1875 22.3125 43.546875 
Q 18.109375 38.921875 18.109375 30.90625 
L 18.109375 0 
L 9.078125 0 
L 9.078125 54.6875 
L 18.109375 54.6875 
L 18.109375 46.1875 
Q 21.34375 51.125 25.703125 53.5625 
Q 30.078125 56 35.796875 56 
Q 45.21875 56 50.046875 50.171875 
Q 54.890625 44.34375 54.890625 33.015625 
z
" id="DejaVuSans-110"/>
      </defs>
      <use xlink:href="#DejaVuSans-82"/>
      <use x="64.982422" xlink:href="#DejaVuSans-101"/>
      <use x="126.505859" xlink:href="#DejaVuSans-115"/>
      <use x="178.605469" xlink:href="#DejaVuSans-111"/>
      <use x="239.787109" xlink:href="#DejaVuSans-108"/>
      <use x="267.570312" xlink:href="#DejaVuSans-117"/>
      <use x="330.949219" xlink:href="#DejaVuSans-116"/>
      <use x="370.158203" xlink:href="#DejaVuSans-105"/>
      <use x="397.941406" xlink:href="#DejaVuSans-111"/>
      <use x="459.123047" xlink:href="#DejaVuSans-110"/>
     </g>
    </g>
   </g>
   <g id="matplotlib.axis_2">
    <g id="ytick_1">
     <g id="line2d_7">
      <defs>
       <path d="M 0 0 
L -3.5 0 
" id="mc28d0209bd" style="stroke:#000000;stroke-width:0.8;"/>
      </defs>
      <g>
       <use style="stroke:#000000;stroke-width:0.8;" x="43.78125" xlink:href="#mc28d0209bd" y="261.235548"/>
      </g>
     </g>
     <g id="text_8">
      <!-- 0.3 -->
      <g transform="translate(20.878125 265.034767)scale(0.1 -0.1)">
       <defs>
        <path d="M 10.6875 12.40625 
L 21 12.40625 
L 21 0 
L 10.6875 0 
z
" id="DejaVuSans-46"/>
        <path d="M 40.578125 39.3125 
Q 47.65625 37.796875 51.625 33 
Q 55.609375 28.21875 55.609375 21.1875 
Q 55.609375 10.40625 48.1875 4.484375 
Q 40.765625 -1.421875 27.09375 -1.421875 
Q 22.515625 -1.421875 17.65625 -0.515625 
Q 12.796875 0.390625 7.625 2.203125 
L 7.625 11.71875 
Q 11.71875 9.328125 16.59375 8.109375 
Q 21.484375 6.890625 26.8125 6.890625 
Q 36.078125 6.890625 40.9375 10.546875 
Q 45.796875 14.203125 45.796875 21.1875 
Q 45.796875 27.640625 41.28125 31.265625 
Q 36.765625 34.90625 28.71875 34.90625 
L 20.21875 34.90625 
L 20.21875 43.015625 
L 29.109375 43.015625 
Q 36.375 43.015625 40.234375 45.921875 
Q 44.09375 48.828125 44.09375 54.296875 
Q 44.09375 59.90625 40.109375 62.90625 
Q 36.140625 65.921875 28.71875 65.921875 
Q 24.65625 65.921875 20.015625 65.03125 
Q 15.375 64.15625 9.8125 62.3125 
L 9.8125 71.09375 
Q 15.4375 72.65625 20.34375 73.4375 
Q 25.25 74.21875 29.59375 74.21875 
Q 40.828125 74.21875 47.359375 69.109375 
Q 53.90625 64.015625 53.90625 55.328125 
Q 53.90625 49.265625 50.4375 45.09375 
Q 46.96875 40.921875 40.578125 39.3125 
z
" id="DejaVuSans-51"/>
       </defs>
       <use xlink:href="#DejaVuSans-48"/>
       <use x="63.623047" xlink:href="#DejaVuSans-46"/>
       <use x="95.410156" xlink:href="#DejaVuSans-51"/>
      </g>
     </g>
    </g>
    <g id="ytick_2">
     <g id="line2d_8">
      <g>
       <use style="stroke:#000000;stroke-width:0.8;" x="43.78125" xlink:href="#mc28d0209bd" y="226.610789"/>
      </g>
     </g>
     <g id="text_9">
      <!-- 0.4 -->
      <g transform="translate(20.878125 230.410007)scale(0.1 -0.1)">
       <use xlink:href="#DejaVuSans-48"/>
       <use x="63.623047" xlink:href="#DejaVuSans-46"/>
       <use x="95.410156" xlink:href="#DejaVuSans-52"/>
      </g>
     </g>
    </g>
    <g id="ytick_3">
     <g id="line2d_9">
      <g>
       <use style="stroke:#000000;stroke-width:0.8;" x="43.78125" xlink:href="#mc28d0209bd" y="191.986029"/>
      </g>
     </g>
     <g id="text_10">
      <!-- 0.5 -->
      <g transform="translate(20.878125 195.785248)scale(0.1 -0.1)">
       <defs>
        <path d="M 10.796875 72.90625 
L 49.515625 72.90625 
L 49.515625 64.59375 
L 19.828125 64.59375 
L 19.828125 46.734375 
Q 21.96875 47.46875 24.109375 47.828125 
Q 26.265625 48.1875 28.421875 48.1875 
Q 40.625 48.1875 47.75 41.5 
Q 54.890625 34.8125 54.890625 23.390625 
Q 54.890625 11.625 47.5625 5.09375 
Q 40.234375 -1.421875 26.90625 -1.421875 
Q 22.3125 -1.421875 17.546875 -0.640625 
Q 12.796875 0.140625 7.71875 1.703125 
L 7.71875 11.625 
Q 12.109375 9.234375 16.796875 8.0625 
Q 21.484375 6.890625 26.703125 6.890625 
Q 35.15625 6.890625 40.078125 11.328125 
Q 45.015625 15.765625 45.015625 23.390625 
Q 45.015625 31 40.078125 35.4375 
Q 35.15625 39.890625 26.703125 39.890625 
Q 22.75 39.890625 18.8125 39.015625 
Q 14.890625 38.140625 10.796875 36.28125 
z
" id="DejaVuSans-53"/>
       </defs>
       <use xlink:href="#DejaVuSans-48"/>
       <use x="63.623047" xlink:href="#DejaVuSans-46"/>
       <use x="95.410156" xlink:href="#DejaVuSans-53"/>
      </g>
     </g>
    </g>
    <g id="ytick_4">
     <g id="line2d_10">
      <g>
       <use style="stroke:#000000;stroke-width:0.8;" x="43.78125" xlink:href="#mc28d0209bd" y="157.36127"/>
      </g>
     </g>
     <g id="text_11">
      <!-- 0.6 -->
      <g transform="translate(20.878125 161.160488)scale(0.1 -0.1)">
       <use xlink:href="#DejaVuSans-48"/>
       <use x="63.623047" xlink:href="#DejaVuSans-46"/>
       <use x="95.410156" xlink:href="#DejaVuSans-54"/>
      </g>
     </g>
    </g>
    <g id="ytick_5">
     <g id="line2d_11">
      <g>
       <use style="stroke:#000000;stroke-width:0.8;" x="43.78125" xlink:href="#mc28d0209bd" y="122.73651"/>
      </g>
     </g>
     <g id="text_12">
      <!-- 0.7 -->
      <g transform="translate(20.878125 126.535729)scale(0.1 -0.1)">
       <defs>
        <path d="M 8.203125 72.90625 
L 55.078125 72.90625 
L 55.078125 68.703125 
L 28.609375 0 
L 18.3125 0 
L 43.21875 64.59375 
L 8.203125 64.59375 
z
" id="DejaVuSans-55"/>
       </defs>
       <use xlink:href="#DejaVuSans-48"/>
       <use x="63.623047" xlink:href="#DejaVuSans-46"/>
       <use x="95.410156" xlink:href="#DejaVuSans-55"/>
      </g>
     </g>
    </g>
    <g id="ytick_6">
     <g id="line2d_12">
      <g>
       <use style="stroke:#000000;stroke-width:0.8;" x="43.78125" xlink:href="#mc28d0209bd" y="88.11175"/>
      </g>
     </g>
     <g id="text_13">
      <!-- 0.8 -->
      <g transform="translate(20.878125 91.910969)scale(0.1 -0.1)">
       <use xlink:href="#DejaVuSans-48"/>
       <use x="63.623047" xlink:href="#DejaVuSans-46"/>
       <use x="95.410156" xlink:href="#DejaVuSans-56"/>
      </g>
     </g>
    </g>
    <g id="ytick_7">
     <g id="line2d_13">
      <g>
       <use style="stroke:#000000;stroke-width:0.8;" x="43.78125" xlink:href="#mc28d0209bd" y="53.486991"/>
      </g>
     </g>
     <g id="text_14">
      <!-- 0.9 -->
      <g transform="translate(20.878125 57.28621)scale(0.1 -0.1)">
       <defs>
        <path d="M 10.984375 1.515625 
L 10.984375 10.5 
Q 14.703125 8.734375 18.5 7.8125 
Q 22.3125 6.890625 25.984375 6.890625 
Q 35.75 6.890625 40.890625 13.453125 
Q 46.046875 20.015625 46.78125 33.40625 
Q 43.953125 29.203125 39.59375 26.953125 
Q 35.25 24.703125 29.984375 24.703125 
Q 19.046875 24.703125 12.671875 31.3125 
Q 6.296875 37.9375 6.296875 49.421875 
Q 6.296875 60.640625 12.9375 67.421875 
Q 19.578125 74.21875 30.609375 74.21875 
Q 43.265625 74.21875 49.921875 64.515625 
Q 56.59375 54.828125 56.59375 36.375 
Q 56.59375 19.140625 48.40625 8.859375 
Q 40.234375 -1.421875 26.421875 -1.421875 
Q 22.703125 -1.421875 18.890625 -0.6875 
Q 15.09375 0.046875 10.984375 1.515625 
z
M 30.609375 32.421875 
Q 37.25 32.421875 41.125 36.953125 
Q 45.015625 41.5 45.015625 49.421875 
Q 45.015625 57.28125 41.125 61.84375 
Q 37.25 66.40625 30.609375 66.40625 
Q 23.96875 66.40625 20.09375 61.84375 
Q 16.21875 57.28125 16.21875 49.421875 
Q 16.21875 41.5 20.09375 36.953125 
Q 23.96875 32.421875 30.609375 32.421875 
z
" id="DejaVuSans-57"/>
       </defs>
       <use xlink:href="#DejaVuSans-48"/>
       <use x="63.623047" xlink:href="#DejaVuSans-46"/>
       <use x="95.410156" xlink:href="#DejaVuSans-57"/>
      </g>
     </g>
    </g>
    <g id="ytick_8">
     <g id="line2d_14">
      <g>
       <use style="stroke:#000000;stroke-width:0.8;" x="43.78125" xlink:href="#mc28d0209bd" y="18.862231"/>
      </g>
     </g>
     <g id="text_15">
      <!-- 1.0 -->
      <g transform="translate(20.878125 22.66145)scale(0.1 -0.1)">
       <use xlink:href="#DejaVuSans-49"/>
       <use x="63.623047" xlink:href="#DejaVuSans-46"/>
       <use x="95.410156" xlink:href="#DejaVuSans-48"/>
      </g>
     </g>
    </g>
    <g id="text_16">
     <!-- Latency Distribution (ms)  -->
     <g transform="translate(14.798438 205.332562)rotate(-90)scale(0.1 -0.1)">
      <defs>
       <path d="M 9.8125 72.90625 
L 19.671875 72.90625 
L 19.671875 8.296875 
L 55.171875 8.296875 
L 55.171875 0 
L 9.8125 0 
z
" id="DejaVuSans-76"/>
       <path d="M 34.28125 27.484375 
Q 23.390625 27.484375 19.1875 25 
Q 14.984375 22.515625 14.984375 16.5 
Q 14.984375 11.71875 18.140625 8.90625 
Q 21.296875 6.109375 26.703125 6.109375 
Q 34.1875 6.109375 38.703125 11.40625 
Q 43.21875 16.703125 43.21875 25.484375 
L 43.21875 27.484375 
z
M 52.203125 31.203125 
L 52.203125 0 
L 43.21875 0 
L 43.21875 8.296875 
Q 40.140625 3.328125 35.546875 0.953125 
Q 30.953125 -1.421875 24.3125 -1.421875 
Q 15.921875 -1.421875 10.953125 3.296875 
Q 6 8.015625 6 15.921875 
Q 6 25.140625 12.171875 29.828125 
Q 18.359375 34.515625 30.609375 34.515625 
L 43.21875 34.515625 
L 43.21875 35.40625 
Q 43.21875 41.609375 39.140625 45 
Q 35.0625 48.390625 27.6875 48.390625 
Q 23 48.390625 18.546875 47.265625 
Q 14.109375 46.140625 10.015625 43.890625 
L 10.015625 52.203125 
Q 14.9375 54.109375 19.578125 55.046875 
Q 24.21875 56 28.609375 56 
Q 40.484375 56 46.34375 49.84375 
Q 52.203125 43.703125 52.203125 31.203125 
z
" id="DejaVuSans-97"/>
       <path d="M 48.78125 52.59375 
L 48.78125 44.1875 
Q 44.96875 46.296875 41.140625 47.34375 
Q 37.3125 48.390625 33.40625 48.390625 
Q 24.65625 48.390625 19.8125 42.84375 
Q 14.984375 37.3125 14.984375 27.296875 
Q 14.984375 17.28125 19.8125 11.734375 
Q 24.65625 6.203125 33.40625 6.203125 
Q 37.3125 6.203125 41.140625 7.25 
Q 44.96875 8.296875 48.78125 10.40625 
L 48.78125 2.09375 
Q 45.015625 0.34375 40.984375 -0.53125 
Q 36.96875 -1.421875 32.421875 -1.421875 
Q 20.0625 -1.421875 12.78125 6.34375 
Q 5.515625 14.109375 5.515625 27.296875 
Q 5.515625 40.671875 12.859375 48.328125 
Q 20.21875 56 33.015625 56 
Q 37.15625 56 41.109375 55.140625 
Q 45.0625 54.296875 48.78125 52.59375 
z
" id="DejaVuSans-99"/>
       <path d="M 32.171875 -5.078125 
Q 28.375 -14.84375 24.75 -17.8125 
Q 21.140625 -20.796875 15.09375 -20.796875 
L 7.90625 -20.796875 
L 7.90625 -13.28125 
L 13.1875 -13.28125 
Q 16.890625 -13.28125 18.9375 -11.515625 
Q 21 -9.765625 23.484375 -3.21875 
L 25.09375 0.875 
L 2.984375 54.6875 
L 12.5 54.6875 
L 29.59375 11.921875 
L 46.6875 54.6875 
L 56.203125 54.6875 
z
" id="DejaVuSans-121"/>
       <path d="M 19.671875 64.796875 
L 19.671875 8.109375 
L 31.59375 8.109375 
Q 46.6875 8.109375 53.6875 14.9375 
Q 60.6875 21.78125 60.6875 36.53125 
Q 60.6875 51.171875 53.6875 57.984375 
Q 46.6875 64.796875 31.59375 64.796875 
z
M 9.8125 72.90625 
L 30.078125 72.90625 
Q 51.265625 72.90625 61.171875 64.09375 
Q 71.09375 55.28125 71.09375 36.53125 
Q 71.09375 17.671875 61.125 8.828125 
Q 51.171875 0 30.078125 0 
L 9.8125 0 
z
" id="DejaVuSans-68"/>
       <path d="M 41.109375 46.296875 
Q 39.59375 47.171875 37.8125 47.578125 
Q 36.03125 48 33.890625 48 
Q 26.265625 48 22.1875 43.046875 
Q 18.109375 38.09375 18.109375 28.8125 
L 18.109375 0 
L 9.078125 0 
L 9.078125 54.6875 
L 18.109375 54.6875 
L 18.109375 46.1875 
Q 20.953125 51.171875 25.484375 53.578125 
Q 30.03125 56 36.53125 56 
Q 37.453125 56 38.578125 55.875 
Q 39.703125 55.765625 41.0625 55.515625 
z
" id="DejaVuSans-114"/>
       <path d="M 48.6875 27.296875 
Q 48.6875 37.203125 44.609375 42.84375 
Q 40.53125 48.484375 33.40625 48.484375 
Q 26.265625 48.484375 22.1875 42.84375 
Q 18.109375 37.203125 18.109375 27.296875 
Q 18.109375 17.390625 22.1875 11.75 
Q 26.265625 6.109375 33.40625 6.109375 
Q 40.53125 6.109375 44.609375 11.75 
Q 48.6875 17.390625 48.6875 27.296875 
z
M 18.109375 46.390625 
Q 20.953125 51.265625 25.265625 53.625 
Q 29.59375 56 35.59375 56 
Q 45.5625 56 51.78125 48.09375 
Q 58.015625 40.1875 58.015625 27.296875 
Q 58.015625 14.40625 51.78125 6.484375 
Q 45.5625 -1.421875 35.59375 -1.421875 
Q 29.59375 -1.421875 25.265625 0.953125 
Q 20.953125 3.328125 18.109375 8.203125 
L 18.109375 0 
L 9.078125 0 
L 9.078125 75.984375 
L 18.109375 75.984375 
z
" id="DejaVuSans-98"/>
       <path d="M 52 44.1875 
Q 55.375 50.25 60.0625 53.125 
Q 64.75 56 71.09375 56 
Q 79.640625 56 84.28125 50.015625 
Q 88.921875 44.046875 88.921875 33.015625 
L 88.921875 0 
L 79.890625 0 
L 79.890625 32.71875 
Q 79.890625 40.578125 77.09375 44.375 
Q 74.3125 48.1875 68.609375 48.1875 
Q 61.625 48.1875 57.5625 43.546875 
Q 53.515625 38.921875 53.515625 30.90625 
L 53.515625 0 
L 44.484375 0 
L 44.484375 32.71875 
Q 44.484375 40.625 41.703125 44.40625 
Q 38.921875 48.1875 33.109375 48.1875 
Q 26.21875 48.1875 22.15625 43.53125 
Q 18.109375 38.875 18.109375 30.90625 
L 18.109375 0 
L 9.078125 0 
L 9.078125 54.6875 
L 18.109375 54.6875 
L 18.109375 46.1875 
Q 21.1875 51.21875 25.484375 53.609375 
Q 29.78125 56 35.6875 56 
Q 41.65625 56 45.828125 52.96875 
Q 50 49.953125 52 44.1875 
z
" id="DejaVuSans-109"/>
      </defs>
      <use xlink:href="#DejaVuSans-76"/>
      <use x="55.712891" xlink:href="#DejaVuSans-97"/>
      <use x="116.992188" xlink:href="#DejaVuSans-116"/>
      <use x="156.201172" xlink:href="#DejaVuSans-101"/>
      <use x="217.724609" xlink:href="#DejaVuSans-110"/>
      <use x="281.103516" xlink:href="#DejaVuSans-99"/>
      <use x="336.083984" xlink:href="#DejaVuSans-121"/>
      <use x="395.263672" xlink:href="#DejaVuSans-32"/>
      <use x="427.050781" xlink:href="#DejaVuSans-68"/>
      <use x="504.052734" xlink:href="#DejaVuSans-105"/>
      <use x="531.835938" xlink:href="#DejaVuSans-115"/>
      <use x="583.935547" xlink:href="#DejaVuSans-116"/>
      <use x="623.144531" xlink:href="#DejaVuSans-114"/>
      <use x="664.257812" xlink:href="#DejaVuSans-105"/>
      <use x="692.041016" xlink:href="#DejaVuSans-98"/>
      <use x="755.517578" xlink:href="#DejaVuSans-117"/>
      <use x="818.896484" xlink:href="#DejaVuSans-116"/>
      <use x="858.105469" xlink:href="#DejaVuSans-105"/>
      <use x="885.888672" xlink:href="#DejaVuSans-111"/>
      <use x="947.070312" xlink:href="#DejaVuSans-110"/>
      <use x="1010.449219" xlink:href="#DejaVuSans-32"/>
      <use x="1042.236328" xlink:href="#DejaVuSans-40"/>
      <use x="1081.25" xlink:href="#DejaVuSans-109"/>
      <use x="1178.662109" xlink:href="#DejaVuSans-115"/>
      <use x="1230.761719" xlink:href="#DejaVuSans-41"/>
      <use x="1269.775391" xlink:href="#DejaVuSans-32"/>
     </g>
    </g>
   </g>
   <g id="LineCollection_1">
    <path clip-path="url(#p125f43c884)" d="M 64.608145 97.76534 
L 73.796482 97.76534 
" style="fill:none;stroke:#1f77b4;stroke-width:1.5;"/>
    <path clip-path="url(#p125f43c884)" d="M 125.86372 96.898463 
L 135.052056 96.898463 
" style="fill:none;stroke:#1f77b4;stroke-width:1.5;"/>
    <path clip-path="url(#p125f43c884)" d="M 187.119295 97.803458 
L 196.307631 97.803458 
" style="fill:none;stroke:#1f77b4;stroke-width:1.5;"/>
    <path clip-path="url(#p125f43c884)" d="M 248.374869 96.664944 
L 257.563205 96.664944 
" style="fill:none;stroke:#1f77b4;stroke-width:1.5;"/>
    <path clip-path="url(#p125f43c884)" d="M 309.630444 103.382994 
L 318.81878 103.382994 
" style="fill:none;stroke:#1f77b4;stroke-width:1.5;"/>
    <path clip-path="url(#p125f43c884)" d="M 370.886018 130.617596 
L 380.074355 130.617596 
" style="fill:none;stroke:#1f77b4;stroke-width:1.5;"/>
   </g>
   <g id="LineCollection_2">
    <path clip-path="url(#p125f43c884)" d="M 64.608145 21.540379 
L 73.796482 21.540379 
" style="fill:none;stroke:#1f77b4;stroke-width:1.5;"/>
    <path clip-path="url(#p125f43c884)" d="M 125.86372 21.657994 
L 135.052056 21.657994 
" style="fill:none;stroke:#1f77b4;stroke-width:1.5;"/>
    <path clip-path="url(#p125f43c884)" d="M 187.119295 21.413022 
L 196.307631 21.413022 
" style="fill:none;stroke:#1f77b4;stroke-width:1.5;"/>
    <path clip-path="url(#p125f43c884)" d="M 248.374869 21.400371 
L 257.563205 21.400371 
" style="fill:none;stroke:#1f77b4;stroke-width:1.5;"/>
    <path clip-path="url(#p125f43c884)" d="M 309.630444 22.526997 
L 318.81878 22.526997 
" style="fill:none;stroke:#1f77b4;stroke-width:1.5;"/>
    <path clip-path="url(#p125f43c884)" d="M 370.886018 24.10058 
L 380.074355 24.10058 
" style="fill:none;stroke:#1f77b4;stroke-width:1.5;"/>
   </g>
   <g id="LineCollection_3">
    <path clip-path="url(#p125f43c884)" d="M 64.608145 260.935963 
L 73.796482 260.935963 
" style="fill:none;stroke:#1f77b4;stroke-width:1.5;"/>
    <path clip-path="url(#p125f43c884)" d="M 125.86372 260.789764 
L 135.052056 260.789764 
" style="fill:none;stroke:#1f77b4;stroke-width:1.5;"/>
    <path clip-path="url(#p125f43c884)" d="M 187.119295 260.888785 
L 196.307631 260.888785 
" style="fill:none;stroke:#1f77b4;stroke-width:1.5;"/>
    <path clip-path="url(#p125f43c884)" d="M 248.374869 260.82166 
L 257.563205 260.82166 
" style="fill:none;stroke:#1f77b4;stroke-width:1.5;"/>
    <path clip-path="url(#p125f43c884)" d="M 309.630444 261.181493 
L 318.81878 261.181493 
" style="fill:none;stroke:#1f77b4;stroke-width:1.5;"/>
    <path clip-path="url(#p125f43c884)" d="M 370.886018 261.216 
L 380.074355 261.216 
" style="fill:none;stroke:#1f77b4;stroke-width:1.5;"/>
   </g>
   <g id="LineCollection_4">
    <path clip-path="url(#p125f43c884)" d="M 69.202313 260.935963 
L 69.202313 21.540379 
" style="fill:none;stroke:#1f77b4;stroke-width:1.5;"/>
    <path clip-path="url(#p125f43c884)" d="M 130.457888 260.789764 
L 130.457888 21.657994 
" style="fill:none;stroke:#1f77b4;stroke-width:1.5;"/>
    <path clip-path="url(#p125f43c884)" d="M 191.713463 260.888785 
L 191.713463 21.413022 
" style="fill:none;stroke:#1f77b4;stroke-width:1.5;"/>
    <path clip-path="url(#p125f43c884)" d="M 252.969037 260.82166 
L 252.969037 21.400371 
" style="fill:none;stroke:#1f77b4;stroke-width:1.5;"/>
    <path clip-path="url(#p125f43c884)" d="M 314.224612 261.181493 
L 314.224612 22.526997 
" style="fill:none;stroke:#1f77b4;stroke-width:1.5;"/>
    <path clip-path="url(#p125f43c884)" d="M 375.480187 261.216 
L 375.480187 24.10058 
" style="fill:none;stroke:#1f77b4;stroke-width:1.5;"/>
   </g>
   <g id="LineCollection_5">
    <path clip-path="url(#p125f43c884)" d="M 64.608145 75.281578 
L 73.796482 75.281578 
" style="fill:none;stroke:#1f77b4;stroke-width:1.5;"/>
    <path clip-path="url(#p125f43c884)" d="M 125.86372 75.682635 
L 135.052056 75.682635 
" style="fill:none;stroke:#1f77b4;stroke-width:1.5;"/>
    <path clip-path="url(#p125f43c884)" d="M 187.119295 75.553049 
L 196.307631 75.553049 
" style="fill:none;stroke:#1f77b4;stroke-width:1.5;"/>
    <path clip-path="url(#p125f43c884)" d="M 248.374869 72.723976 
L 257.563205 72.723976 
" style="fill:none;stroke:#1f77b4;stroke-width:1.5;"/>
    <path clip-path="url(#p125f43c884)" d="M 309.630444 81.648658 
L 318.81878 81.648658 
" style="fill:none;stroke:#1f77b4;stroke-width:1.5;"/>
    <path clip-path="url(#p125f43c884)" d="M 370.886018 127.997916 
L 380.074355 127.997916 
" style="fill:none;stroke:#1f77b4;stroke-width:1.5;"/>
   </g>
   <g id="LineCollection_6">
    <path clip-path="url(#p125f43c884)" d="M 64.608145 69.119948 
L 73.796482 69.119948 
" style="fill:none;stroke:#ff7f0e;stroke-width:1.5;"/>
    <path clip-path="url(#p125f43c884)" d="M 125.86372 67.265668 
L 135.052056 67.265668 
" style="fill:none;stroke:#ff7f0e;stroke-width:1.5;"/>
    <path clip-path="url(#p125f43c884)" d="M 187.119295 68.125363 
L 196.307631 68.125363 
" style="fill:none;stroke:#ff7f0e;stroke-width:1.5;"/>
    <path clip-path="url(#p125f43c884)" d="M 248.374869 65.657063 
L 257.563205 65.657063 
" style="fill:none;stroke:#ff7f0e;stroke-width:1.5;"/>
    <path clip-path="url(#p125f43c884)" d="M 309.630444 67.88198 
L 318.81878 67.88198 
" style="fill:none;stroke:#ff7f0e;stroke-width:1.5;"/>
    <path clip-path="url(#p125f43c884)" d="M 370.886018 95.909079 
L 380.074355 95.909079 
" style="fill:none;stroke:#ff7f0e;stroke-width:1.5;"/>
   </g>
   <g id="LineCollection_7">
    <path clip-path="url(#p125f43c884)" d="M 64.608145 19.372484 
L 73.796482 19.372484 
" style="fill:none;stroke:#ff7f0e;stroke-width:1.5;"/>
    <path clip-path="url(#p125f43c884)" d="M 125.86372 19.398901 
L 135.052056 19.398901 
" style="fill:none;stroke:#ff7f0e;stroke-width:1.5;"/>
    <path clip-path="url(#p125f43c884)" d="M 187.119295 19.347368 
L 196.307631 19.347368 
" style="fill:none;stroke:#ff7f0e;stroke-width:1.5;"/>
    <path clip-path="url(#p125f43c884)" d="M 248.374869 19.420695 
L 257.563205 19.420695 
" style="fill:none;stroke:#ff7f0e;stroke-width:1.5;"/>
    <path clip-path="url(#p125f43c884)" d="M 309.630444 19.353126 
L 318.81878 19.353126 
" style="fill:none;stroke:#ff7f0e;stroke-width:1.5;"/>
    <path clip-path="url(#p125f43c884)" d="M 370.886018 19.296 
L 380.074355 19.296 
" style="fill:none;stroke:#ff7f0e;stroke-width:1.5;"/>
   </g>
   <g id="LineCollection_8">
    <path clip-path="url(#p125f43c884)" d="M 64.608145 260.139761 
L 73.796482 260.139761 
" style="fill:none;stroke:#ff7f0e;stroke-width:1.5;"/>
    <path clip-path="url(#p125f43c884)" d="M 125.86372 261.131374 
L 135.052056 261.131374 
" style="fill:none;stroke:#ff7f0e;stroke-width:1.5;"/>
    <path clip-path="url(#p125f43c884)" d="M 187.119295 260.413967 
L 196.307631 260.413967 
" style="fill:none;stroke:#ff7f0e;stroke-width:1.5;"/>
    <path clip-path="url(#p125f43c884)" d="M 248.374869 260.727272 
L 257.563205 260.727272 
" style="fill:none;stroke:#ff7f0e;stroke-width:1.5;"/>
    <path clip-path="url(#p125f43c884)" d="M 309.630444 260.835364 
L 318.81878 260.835364 
" style="fill:none;stroke:#ff7f0e;stroke-width:1.5;"/>
    <path clip-path="url(#p125f43c884)" d="M 370.886018 261.116845 
L 380.074355 261.116845 
" style="fill:none;stroke:#ff7f0e;stroke-width:1.5;"/>
   </g>
   <g id="LineCollection_9">
    <path clip-path="url(#p125f43c884)" d="M 69.202313 260.139761 
L 69.202313 19.372484 
" style="fill:none;stroke:#ff7f0e;stroke-width:1.5;"/>
    <path clip-path="url(#p125f43c884)" d="M 130.457888 261.131374 
L 130.457888 19.398901 
" style="fill:none;stroke:#ff7f0e;stroke-width:1.5;"/>
    <path clip-path="url(#p125f43c884)" d="M 191.713463 260.413967 
L 191.713463 19.347368 
" style="fill:none;stroke:#ff7f0e;stroke-width:1.5;"/>
    <path clip-path="url(#p125f43c884)" d="M 252.969037 260.727272 
L 252.969037 19.420695 
" style="fill:none;stroke:#ff7f0e;stroke-width:1.5;"/>
    <path clip-path="url(#p125f43c884)" d="M 314.224612 260.835364 
L 314.224612 19.353126 
" style="fill:none;stroke:#ff7f0e;stroke-width:1.5;"/>
    <path clip-path="url(#p125f43c884)" d="M 375.480187 261.116845 
L 375.480187 19.296 
" style="fill:none;stroke:#ff7f0e;stroke-width:1.5;"/>
   </g>
   <g id="LineCollection_10">
    <path clip-path="url(#p125f43c884)" d="M 64.608145 32.89485 
L 73.796482 32.89485 
" style="fill:none;stroke:#ff7f0e;stroke-width:1.5;"/>
    <path clip-path="url(#p125f43c884)" d="M 125.86372 31.830757 
L 135.052056 31.830757 
" style="fill:none;stroke:#ff7f0e;stroke-width:1.5;"/>
    <path clip-path="url(#p125f43c884)" d="M 187.119295 31.549688 
L 196.307631 31.549688 
" style="fill:none;stroke:#ff7f0e;stroke-width:1.5;"/>
    <path clip-path="url(#p125f43c884)" d="M 248.374869 31.45335 
L 257.563205 31.45335 
" style="fill:none;stroke:#ff7f0e;stroke-width:1.5;"/>
    <path clip-path="url(#p125f43c884)" d="M 309.630444 30.054778 
L 318.81878 30.054778 
" style="fill:none;stroke:#ff7f0e;stroke-width:1.5;"/>
    <path clip-path="url(#p125f43c884)" d="M 370.886018 58.220564 
L 380.074355 58.220564 
" style="fill:none;stroke:#ff7f0e;stroke-width:1.5;"/>
   </g>
   <g id="patch_3">
    <path d="M 43.78125 273.312 
L 43.78125 7.2 
" style="fill:none;stroke:#000000;stroke-linecap:square;stroke-linejoin:miter;stroke-width:0.8;"/>
   </g>
   <g id="patch_4">
    <path d="M 400.90125 273.312 
L 400.90125 7.2 
" style="fill:none;stroke:#000000;stroke-linecap:square;stroke-linejoin:miter;stroke-width:0.8;"/>
   </g>
   <g id="patch_5">
    <path d="M 43.78125 273.312 
L 400.90125 273.312 
" style="fill:none;stroke:#000000;stroke-linecap:square;stroke-linejoin:miter;stroke-width:0.8;"/>
   </g>
   <g id="patch_6">
    <path d="M 43.78125 7.2 
L 400.90125 7.2 
" style="fill:none;stroke:#000000;stroke-linecap:square;stroke-linejoin:miter;stroke-width:0.8;"/>
   </g>
   <g id="legend_1">
    <g id="patch_7">
     <path d="M 50.78125 44.55625 
L 116.378125 44.55625 
Q 118.378125 44.55625 118.378125 42.55625 
L 118.378125 14.2 
Q 118.378125 12.2 116.378125 12.2 
L 50.78125 12.2 
Q 48.78125 12.2 48.78125 14.2 
L 48.78125 42.55625 
Q 48.78125 44.55625 50.78125 44.55625 
z
" style="fill:#ffffff;opacity:0.8;stroke:#cccccc;stroke-linejoin:miter;"/>
    </g>
    <g id="patch_8">
     <path d="M 52.78125 23.798437 
L 72.78125 23.798437 
L 72.78125 16.798437 
L 52.78125 16.798437 
z
" style="fill:#2cbdfe;stroke:#2cbdfe;stroke-linejoin:miter;"/>
    </g>
    <g id="text_17">
     <!-- Car -->
     <g transform="translate(80.78125 23.798437)scale(0.1 -0.1)">
      <defs>
       <path d="M 64.40625 67.28125 
L 64.40625 56.890625 
Q 59.421875 61.53125 53.78125 63.8125 
Q 48.140625 66.109375 41.796875 66.109375 
Q 29.296875 66.109375 22.65625 58.46875 
Q 16.015625 50.828125 16.015625 36.375 
Q 16.015625 21.96875 22.65625 14.328125 
Q 29.296875 6.6875 41.796875 6.6875 
Q 48.140625 6.6875 53.78125 8.984375 
Q 59.421875 11.28125 64.40625 15.921875 
L 64.40625 5.609375 
Q 59.234375 2.09375 53.4375 0.328125 
Q 47.65625 -1.421875 41.21875 -1.421875 
Q 24.65625 -1.421875 15.125 8.703125 
Q 5.609375 18.84375 5.609375 36.375 
Q 5.609375 53.953125 15.125 64.078125 
Q 24.65625 74.21875 41.21875 74.21875 
Q 47.75 74.21875 53.53125 72.484375 
Q 59.328125 70.75 64.40625 67.28125 
z
" id="DejaVuSans-67"/>
      </defs>
      <use xlink:href="#DejaVuSans-67"/>
      <use x="69.824219" xlink:href="#DejaVuSans-97"/>
      <use x="131.103516" xlink:href="#DejaVuSans-114"/>
     </g>
    </g>
    <g id="patch_9">
     <path d="M 52.78125 38.476562 
L 72.78125 38.476562 
L 72.78125 31.476562 
L 52.78125 31.476562 
z
" style="fill:#f5b14c;fill-opacity:0.85;stroke:#f5b14c;stroke-linejoin:miter;stroke-opacity:0.85;"/>
    </g>
    <g id="text_18">
     <!-- Person -->
     <g transform="translate(80.78125 38.476562)scale(0.1 -0.1)">
      <defs>
       <path d="M 19.671875 64.796875 
L 19.671875 37.40625 
L 32.078125 37.40625 
Q 38.96875 37.40625 42.71875 40.96875 
Q 46.484375 44.53125 46.484375 51.125 
Q 46.484375 57.671875 42.71875 61.234375 
Q 38.96875 64.796875 32.078125 64.796875 
z
M 9.8125 72.90625 
L 32.078125 72.90625 
Q 44.34375 72.90625 50.609375 67.359375 
Q 56.890625 61.8125 56.890625 51.125 
Q 56.890625 40.328125 50.609375 34.8125 
Q 44.34375 29.296875 32.078125 29.296875 
L 19.671875 29.296875 
L 19.671875 0 
L 9.8125 0 
z
" id="DejaVuSans-80"/>
      </defs>
      <use xlink:href="#DejaVuSans-80"/>
      <use x="56.677734" xlink:href="#DejaVuSans-101"/>
      <use x="118.201172" xlink:href="#DejaVuSans-114"/>
      <use x="159.314453" xlink:href="#DejaVuSans-115"/>
      <use x="211.414062" xlink:href="#DejaVuSans-111"/>
      <use x="272.595703" xlink:href="#DejaVuSans-110"/>
     </g>
    </g>
   </g>
  </g>
 </g>
 <defs>
  <clipPath id="p125f43c884">
   <rect height="266.112" width="357.12" x="43.78125" y="7.2"/>
  </clipPath>
 </defs>
</svg>
